<mxfile host="Electron" modified="2023-08-21T16:41:20.517Z" agent="Mozilla/5.0 (Macintosh; Intel Mac OS X 10_15_7) AppleWebKit/537.36 (KHTML, like Gecko) draw.io/21.6.8 Chrome/114.0.5735.289 Electron/25.5.0 Safari/537.36" etag="0X07FFCDP5NUPqX-Lp4e" version="21.6.8" type="device">
  <diagram name="Page-1" id="lrjxQl19eTxhGJrCcXGx">
    <mxGraphModel dx="3617" dy="1017" grid="1" gridSize="10" guides="1" tooltips="1" connect="1" arrows="1" fold="1" page="1" pageScale="1" pageWidth="850" pageHeight="1100" math="0" shadow="0">
      <root>
        <mxCell id="0" />
        <mxCell id="1" parent="0" />
        <mxCell id="ajUBVkdMT1qYDPF6oBHR-1" value="" style="edgeStyle=orthogonalEdgeStyle;orthogonalLoop=1;jettySize=auto;html=1;entryX=0;entryY=0.5;entryDx=0;entryDy=0;strokeColor=#DAE8FC;strokeWidth=3;sketch=0;rounded=1;" edge="1" parent="1" source="ajUBVkdMT1qYDPF6oBHR-3" target="ajUBVkdMT1qYDPF6oBHR-15">
          <mxGeometry relative="1" as="geometry" />
        </mxCell>
        <mxCell id="ajUBVkdMT1qYDPF6oBHR-2" style="edgeStyle=orthogonalEdgeStyle;rounded=1;sketch=0;orthogonalLoop=1;jettySize=auto;html=1;entryX=0.5;entryY=0;entryDx=0;entryDy=0;strokeColor=#DAE8FC;strokeWidth=3;" edge="1" parent="1" source="ajUBVkdMT1qYDPF6oBHR-3" target="ajUBVkdMT1qYDPF6oBHR-17">
          <mxGeometry relative="1" as="geometry" />
        </mxCell>
        <mxCell id="ajUBVkdMT1qYDPF6oBHR-3" value="Start" style="ellipse;whiteSpace=wrap;html=1;fillColor=#dae8fc;strokeColor=#6c8ebf;" vertex="1" parent="1">
          <mxGeometry x="-1345" y="110" width="110" height="50" as="geometry" />
        </mxCell>
        <mxCell id="ajUBVkdMT1qYDPF6oBHR-4" style="edgeStyle=orthogonalEdgeStyle;rounded=1;sketch=0;orthogonalLoop=1;jettySize=auto;html=1;strokeColor=#000000;strokeWidth=3;" edge="1" parent="1" source="ajUBVkdMT1qYDPF6oBHR-5" target="ajUBVkdMT1qYDPF6oBHR-25">
          <mxGeometry relative="1" as="geometry" />
        </mxCell>
        <mxCell id="ajUBVkdMT1qYDPF6oBHR-5" value="WaitForCode" style="rounded=1;whiteSpace=wrap;html=1;fillColor=#B5F4D2;strokeColor=#82b366;" vertex="1" parent="1">
          <mxGeometry x="-1510" y="400" width="180" height="50" as="geometry" />
        </mxCell>
        <mxCell id="ajUBVkdMT1qYDPF6oBHR-6" style="edgeStyle=orthogonalEdgeStyle;rounded=1;sketch=0;orthogonalLoop=1;jettySize=auto;html=1;entryX=0.5;entryY=0;entryDx=0;entryDy=0;strokeColor=#000000;strokeWidth=3;" edge="1" parent="1" source="ajUBVkdMT1qYDPF6oBHR-9" target="ajUBVkdMT1qYDPF6oBHR-33">
          <mxGeometry relative="1" as="geometry" />
        </mxCell>
        <mxCell id="ajUBVkdMT1qYDPF6oBHR-7" style="edgeStyle=orthogonalEdgeStyle;rounded=1;sketch=0;orthogonalLoop=1;jettySize=auto;html=1;entryX=0.5;entryY=0;entryDx=0;entryDy=0;strokeColor=#000000;strokeWidth=3;" edge="1" parent="1" source="ajUBVkdMT1qYDPF6oBHR-9" target="ajUBVkdMT1qYDPF6oBHR-35">
          <mxGeometry relative="1" as="geometry" />
        </mxCell>
        <mxCell id="ajUBVkdMT1qYDPF6oBHR-8" style="edgeStyle=orthogonalEdgeStyle;rounded=1;sketch=0;orthogonalLoop=1;jettySize=auto;html=1;entryX=0.5;entryY=1;entryDx=0;entryDy=0;strokeColor=#000000;strokeWidth=3;exitX=0.5;exitY=1;exitDx=0;exitDy=0;" edge="1" parent="1" source="ajUBVkdMT1qYDPF6oBHR-9" target="ajUBVkdMT1qYDPF6oBHR-11">
          <mxGeometry relative="1" as="geometry">
            <mxPoint x="-1110" y="460" as="sourcePoint" />
            <Array as="points">
              <mxPoint x="-1090" y="460" />
              <mxPoint x="-875" y="460" />
            </Array>
          </mxGeometry>
        </mxCell>
        <mxCell id="ajUBVkdMT1qYDPF6oBHR-9" value="&lt;span data-metadata=&quot;&lt;!--(figmeta)eyJmaWxlS2V5Ijoid0dIeTZWem9zUndhVGhLVzloR2ZFdCIsInBhc3RlSUQiOjE3NjI4NjMwNzYsImRhdGFUeXBlIjoic2NlbmUifQo=(/figmeta)--&gt;&quot;&gt;&lt;/span&gt;&lt;span data-buffer=&quot;&lt;!--(figma)ZmlnLWtpd2kjAAAAvjwAALW9e5xkSVXgH3Ezsx5d/Zr3k6eIiojzYhgQkXzcqszufE3ezKrpUSfJqrzVlXRWZpk3q3qadV1EREREREREVHRZRHQRFRERERERWURExBeyqOiiP3/+/Lmu67quu98TEfeR1T3s/rN8mI4TJ06ciDhx4sSJE5G3Xuk1wigaXAy7Vw5Cpa4/16o1+0G32Okq/tdsVfx+uVpsbvgBWd0L/E4m7xlqv1kBzgW1jWaxDpQPuhfqPkDBAP3AF15LhtZw7gfna+1+x6+3ilJzudnq1tYv9INqq1ev9HvtjU6xIvVXHNivtJqSX43zHX+94wdVUCeCst/0+6Db1f6DPb9zAeRaFtnx23VBnqzU1tdJT5XrNb/Z7Zc6tF4uBtK305m+nWv1OozDl56dCbodv9iwJeTPurwd8XXFR0cRQngIWEkTurizgzBBQVXpt5qmYWUyW51aV8agm9Nh2N4bRCFkZYq6piWIGq1NA+qt0WQ4mlzsHI6FptlqPux3WhSoVsWUCwc7W0+i0AelKq1yr8GoAHW52NwsBkDeRqfVawPk1jvFhtDlS61W3S82+6223yl2a60myMKmX+62OkBLMk7S5XrNsF3x6/VaOxBwtQMR027m9UTH3+jVi51+u1W/sGGYrNFUs+JXEHdKd7LrPyRdOhXUa2VBnA4uNEot0ZEztSaNNQ0WqdbK50VU1wXVYtvvb9W61b6re3251WzC03TwhrLoY6neKp8nd+NWrbJhdOsmeDVkpDc3/EqtCHBLtbZRrfOfFN8awMAO9jYH9hF2p16URm/fKgbVWr9Ly+Tu2Cx2asWS6f+dXQc8zgD9MvIg9/iYxGn2Exie0dcnBnuDg3BrNN/rho/O7RQ9PniwV+z4lCpqO2lqOtloGSXyuvASeaH3ZHNJttLakg7nryXYQrvYKdbrLCB0vNHvuHEuLaLr/rpgl/3mRr9SZAhF0/iK5FkqPcmsSma9ZrieMHCrXvFF1mtdlo//cKsmvTzZ7vgVfx21qPTbnVbZD0TBTiE3vy7lp2MF7Ac118czCarRq3drbYM82yg2e8V6v9Zs96Rv11X9h4pWg64vV/3NjgFvaFPNoW9sMWwLyixLz25u13vS/C3FTqe1FQ/zVpuLZXFb0Gs06Ev/XK9pZhzc7UaJ7gjavl+u9ku9EnMI4s5as+vLmmedtzrFDcE9rjQOJ8MGK026UwyCfrfKTGyIzcEqdhrG0ulKsXPeF9aeG6QoVE6WD6ujhCEhmy+36q0kVzBKaeosBax/A5kFR41KC4Umv2KrxNnVVFlPBK31bt/wILdWLXYqSc5YOL/j21V1yn+ojJzsyE9XzWyfCYrdXrLwz5pWAK6r9xBVK6h1pYnr24PRxGnvStBCt0EqNKpSY1poTboKRicoSY08sDiAgkJTxUKAyyU4iJzS52sNK+YCVu9cDWBpkyUkRm65ts9mFOwMxqGVPrtJx++WjeDXazJOjb6a1rpWb3P+7m6443qcr2EuOuwlRRYQharSabXTrF5vYbyYyWYFO9KTDnqlYvn8Iion67dsbPRSC42qoRygVa+N3STV9daWAehC1/YhQCPq/XKxLZqZT3MsqE7Z2PWCMK2EO9PZYD6aTqgTW29aZn6RK7BmuLXzfqptXj0cyHbQnY32ycV14N2v+m7mdfNwfzuc9SajeQTfTlGGqtq1h/x6AKDpNTuiUHrl6SSaz9IZXmbmwSspN0PSjaJsaB79cGLPBWX2Q4D8OhwrfVuj4DKGeimYz6aXwuJ4dHFChYSZwswzsQC61es60LPE5cEBGhmPh+Ea1dCJvfTsgha5yCByNus/2KvV2TQxdCDzTqfEhNktu4D4UD4MaIJayu4Fy6m1799NfiWTv4f8aiZ/L/kTmfx95Ncy+WeSP5nJ30/+VLnWKWdbP21He246Esk08AI6YFXJ3/RlBDoeuFeaTsfhYNI6CGMFyfeadqUiRqrJ1gWsg14J22xg7yGzgI2+GuFXp7PRi6aT+WBMdWcZM3OLLhspeOd6bLrrNdPDtPZmOJuPWHqCa7UpylQttbrdVgPIa0wPo7B8OIumM+TDtlDE9lGgyp1WwEqrdYC1f8GXpYfqkfNwGU1T7SJDwRaWUXHyeSw9SYGkXKsDLTXEokqVZaYYbxNoJZk/k13dZLFPZ43RbCYdSFaRmXVSbQAsEJaRHa0rKuxVBtGetSdemV0YlEoVXBubY9dDvt3cAKXOtX1JdbApideuiO+Y8x89mM7mx9dQDh8Fk87m5xaKihF4KKZ9HSOSJevVB1emh/ON2WhomeTtsspIPO2gZ1dZLq3THszn4WxCEVS1tlkh2Ghjq7WZz8P5tBNGoxfBOhGR6Y6RTNIPnUCeVOvODic7Tv28Si0QN0d4KlxedlMAHcyvjMMgdGNn6jpBy9nHLs4xiS6jXVZX8NNxNZpl2VhyXb/RZoM1Pno+ZoMw52Eiyav2G0Ad7xYYjsHOJTuNyZiqGOiHka7pgWajxJk0sKU2ek1zV0nXitQroWRiYoBzpkJ5ekiHZq7e0mPVQ+xucnLFXld2rnyGVcGwOncYzUe7V8g+Jpd2sez3MQX2qJCz+ZLf3bKOAVKCT2Bn0RhckJwVgtrDfr/bwsoYAS0gUDomudZo43STkxJorDTa02gkk8t+Asp1XBVLiL1njyeGbGsmtpm9hmNLsQ1audQWZ0Xkpg/qmNvxMWhIJixZmrWTvBJPHabA+l1yzCSvex0zcSU2ZNJcud4yHmseP7sfO93kC702/qzfN85+v9NrdmvmeLPEKqvUxLsxCrBco2uzQablszj+LH/DXRXXab0vVdmayOtGi+MtrimwZ2FbkKNWVVww4LwtwJkQsoLNGc99CSq8ZOMYc6I1I1yp4E6SrlJ23r8QVztBdrNlj0RrwHYcVTOXJ5M8K478KdtErDinbZZD3KbUPtOdDSZ2Su0Ib2fD5ZjQ7bNDsPWKLCBTrGSm2FTR65ygST1zaumvd1rJSSGXQcU7RT6Ds3tCIYNJNoWldi+oWpxjtpxiYl4rKcqyWk0RCacTcg62OMdpLcXEnE6mKMsJMcWIhNNp21EmEaKY2ZkFZMzv7ALWsrxuAZdwvd605LCO6Q1ZXMzzxizSsrwpi0o43ox5q5X7UkbuFnxHwhDFJlbPLMlbOSa08CZTzG3+IGIF2xk/TeSi3CvVyhQoYR1nNC59JuuJabIeOTVkiSVFeaFbwBRs3QXckrXqSX45aHfslrCygXqy5SaIVUeaIE5YyCwQ1rJdHWuLyO6WmI+Tx5BVjkigTwU7s+l4XBnNrCWh026NfYENAAkbA23rYobmYg3CIUZsHlLuP9RmL7Q2tQwHcapMTm/02IW0FxHNoTHgZaXHUzwjA3rl6RjXQ+dnalXpi/zjbfNPbsA/eeudUPlRcvoK/3gdUFCniMv8k9vjn7zhFMynB1TYEVi9QOkDZ6Uh8BqD+Wz0qNJL+3fdRV7v33U3ibd/1z0kuf27BZnfv1uQhf27BbnUHsywyLXJMKSed/FwNFSPZJiuKc8eFyg8GowPQ+roQ3N0uFN560ipOdgPlc7tDvZH4yvQ60j2agAPJvNoZzY6mJPLCe3mYDYaUOVwP5yNdtZHFw9niJbd2R2RFWrHfAJoIgsmIAhsmlmsGhwMdlDqhbqEGnAYxIiZvCaG4U6V12CwLpMrA8xywJASPDAw/hTqbOY3W7s8OIhQ5rQK688cLzVJP854bZ+jnnQ9B6Kf5MRFJ4goYAEUg90AXMrwb8dyz3YLF55/8eTxngBMfwIjZCYnoaqh02apaQ4FxsCvh4O5EfCf6zYnQIpU+Z62IXG98MrtQPA56Q2p6SBpwQURlwjQiCu73OpUmqQrxfWOlK9WmsYYnWj2GtKlNRxuCaSdZL+UIZ2q2PS0eOKkZziwSnq2WDTO/3Vlm17P6UfSGwKbv7GzaeIeN8nCJL052DKB21vKwZaktzI5gr+tXDYRvNsD61XdUa2Z0Oydzn95XKvTlP49XoRC+gT2N5nKJ1a65oz7pPV6Ucbx5MZGR7b3LwrQNdKncJqQ9r94HeeX9KlVm35J1bb7pV2b/7IHbfq0tk2/XE5IpE+vr5ck/xWttkmf0ema9Cvbtv5d7fNNkdPddcwH6T2k0s97O9265O8jlfwzi6XOJun9xdKm5J9FKv1+YNPyefYmHSJ9Tqm+JfPzVaRC91xSofvq4vmqjON55XPm5Pc15XWzEJ5fbpt8sdzrCF2JrV7yZYybpJV1y98neCf9WSe9h3SD9F7SKs1KezVS4X+uasdDaxvSn3q1dU70Bg/W+CfNGo4Eaetc+1kPkLbPtR8QPg+eaz/7LtLOufZd95EG9XMNqdclWCv0PXY1mZdNcW5It0ilHw81zjcEf6FZN27Zw83e+S7p17IBSL++jjQg/fpNBE76SDvoCr5PKvgXdM53JD/otKuSbnd6JZn3nQAHmHTYtf0Iu01zNtllmmT+Lm4SCiPd27Tlo0077hdunjf6cmmz0+2QjknvId0PAiyvUhNSyU9J7yU9IL2P9BtIn0k6I72fNCJ9FumcVOR0SPps0qMgwGYrdZlU+D1KKvyukAq/F5EKv39FKvy+kVT4/WtS4fdNpMLv35AKvxfrILhHGH6zLm+aHr5EAGH5LQIIz5cKIEy/VQDh+jIBhO23CSB8Xy6AMP52AYTzKwBMV79DAOH8SgGE83cKIJxfJYBw/i4BhPOrBRDO3y2AcH6NAML5ewQQzq8FMH3+XgGE8+sEEM7fJ4Bwfr0Awvn7BRDObxBAOP+AAML5jQII5x8UQDj/EMC9wvmHBRDObxJAOP+IAML5RwUQzv9WAOH8ZgGE878TQDi/RQDh/GMCCOe3AtwnnH9cAOH8NgGE808IIJx/UgDh/O8FEM5vF0A4/5QAwvkdAgjnnxZAOP8MwDOF888KIJzfKYBw/jkBhPO7BBDOPy+AcH63AML5FwQQzu8RQDj/ogDC+b0A9wvnXxJAOL9PAOH8ywII5/cLIJx/RQDh/AEBhPOvCiCcPyiAcP41AYTzhwCeJZx/XQDh/GEBhPNvCCCcPyKAcP4PAgjnjwognH9TAOH8MQGE828JIJw/DvCAcP5tAYTzJwQQzr8jgHD+pADC+XcFEM6fEkA4/54Awvn3BRDOfyCAcP5DAGOi/kgA4fxpAYTzHwsgnD8jgHD+jwII588KIJz/RADh/KcCCOc/E0A4f04fjwvhWs3ZrtV9Ssculic+ZWNwcCBOjvZ2Z9N9ccvmU/71SuPpttJ6+8o8jFRO24CU8nLcE+5JfiIeGf7XcDAfGNplldscDcOp8ryYJrq3NxsL0fpozLm3LN5kcfhCYhBKr8ylU/h50d5gOL0cAXp7o4t7nOD38PvwJIfhfDAaA+VDxhKJk4FHecQJPyTSBLw0D/dNaNIWLR+Ntjl77gi8Ym4MbLPuNll5J/7vNrmDxzQbMLZVtbo9E54TWiZ3wnRGeTebCTir9I4IQr1AeVPxMOfigOeORtFoG29LqzyJu+g5rQoRnnikdvUSvCfR7nS2r/bU8sjMxku1WjFQdw/3eSJdB7U6mIDkUFGTIsGctRhcPjxSpm1ZXUc+e6dxvTphMXvTw/GwLP1rDCYg6M/NsymnEyrTzbVIqgCc3DWyNZRuSl+u1akDGem6KcJaq9Ph/vSFozIttAk2I+NlfebIKMnLtLqewPDF0YQTjLS8NRrOGZi6YQFbDUWOoG/ckZZwYNVf59RN4pw2mKsKyqe8wqXwipoovQu2PprElZhdwVRGF0N6l+P0QM66tC9SeclsWcICNwfkYD6y4/RyA+7Ru4OLNKwFbIrU0ON45Zj4tG38hp29gbj54SyCQic501CtIkP2IoFbR+GMMGnYHTC/6jWezo1N7NSE0raZdS53xvQ+YlvRhYvjKwd7EfuJXhomFzQRu4le3ubYd+kbDqeyMN+k9VnLZpMOQEKPV3YZTCKdV2m9ujsYj7eJkq1TEKmJPrGHIs5o7FJp+ihcXqf1Gjmgv/P0yXkScOVUOnOntoI65fDhMJHv6fH0ogTnDUl3Wo7H3trdjcI5lkWt6jP7ozgil9S7bp8c/G3rr9f6+iHHpaNwWDed+HtP31CxiFTOJ+0wnbT0grS8VFos4QVpsZgWpFXYpS9Z4SxdLYtlN1J4LEhgxeEzElj9P5DAieOjXRvawdVN/xntyWqmD8rLbxPNHEZqyCHY2k93Ys7txXQcCApE/hLGLIK0UpR2msgAtiSGc6NoczCGFUZm39Y9z9JZVoWSE6fyVrB79nSIlC+bRclCkrILADkBktHnJVeMdmBFbhkzOZ2F9czlIFZxdzSL5olcpC06lM0vbcjkKW95Z7q/P2AIJbubpOGBbWVXEINmDDKBRgto/2rmg+GRs8dLV9ue5UqiHOxSM2IgyEsjr5i57HpOWzACR+7uqYTVQWYG3RjMmCQn6Wy3bJDFaJXUlEwznF+eQu7Gg3D2kf6LiPbwTzKqq+2CbMvcpiATLRMfqUe0Dq7sb0/Hjn1kMrTLbm3hmEkkDDxCJ7JRBPQ9XEc0bDZMXcwWrTQ7vuehCXA4AIfDyTEfWW2EE9nekJBra5rlrA+jcJ053xCXgnFcmZgAicYNGO3utibjKx2kfjQYG+pcxep5bX//cC6jM7uP5est8iXjrJdXjFg5nXAXmksoJzY1LmQhBOxEtD49PKgh/nhd6EFc5+1aaJBq7bGLjcBqj1lutgE6i3j/NxRBOH9sogCtFAlJY+BCAmCopbe6OxqH5+24IlMIC9wtN8bqAM+JOJawbDMvbq4inH1MmfPFCuMRXsfsikxodxocbkv8axsyQagXY9NYSgfTCcvStrR8ONkdy/Wc3LJkWa6Mol5cFKLiatV2uxzXbwwiFpadstxOjLVc9cHh9ngU7cFMGpbudqfdcLBfT7snjXjHG8nVcEpllbYYtehAMJdhp7omrFq7wWV6ivY4YlFRPKeFLixq0bX5bt7zf8SZhT8YB5kZiatY1vZBB+bR+HA3Sk/wR4wPZ0w9yzk3w/AdisOXT525AknizC1FB7NwMIRiOdqbXkbWuKGlEAkOZe1BvtIVL8+YvdpkV3xp096m0sNDuyyp7LXxyKZSUAmPRjvxNXEcfZbwhLnK1mUCRiaE5hkcAWkJXJJnZUrFTuzYsfZd5XJ5q2+OJPpYI2xLkuGcheI6+8VoGHptyHyMdkcYYDSXWpbnh9lkWsiQfbvtLHlXGKiV5M5RcQcRX1hogZMST3LxtUWOqDnjiCnzLpsQFxwipufGvtkzoZll14ESzs9FrIZshegzJpHe0EoyarnW4w7AXsXJdYh7GKKvYmDHkNQk9FSr9ONnS1eTF1E0tifRMs/bTtCGy8cRZYoqxwrVHHDgMDI0VKrQLG4S+TTBXcWNjHt3pYMtE271JO0TSTYEOXc1Yy4+8z6nGDkEwpnpFNMDRfwKDgIVdDZM2JcQXRu2/fa9/c37QHi2ZsCxh+UdcXaKDnd3ifqz7EfimJuusbJ28LPmshvM1TepXHR0UWyFcZeZfrIcMEWz/5CVQK51OBeXQbw6yjFTzAZbs2wc5JehWJ/Odli38j4F23MpAr3CplPcjqbjw3notl4M1U52UJ/S6oTr8eaGa1J5tfV+0/fdbUqxvlW8EADounEk5ckC5ngu47gf242XrzzscLJyc5PD/YA1zzxECmfLrXPOg5HFBrIK8DMuHmLZZi6HF0O/mMaVAzF4s4l6QK1uYM2Zf3OqoBGdsIq3jlwbuwTBZSwB8jbvbFcUNmbBI7L+AtYJdyMQsCudl4sCq4vywIeEW4VO67xgPPdiNeevr9uXOnlisK2OQAX3NGMJK4TFN/wy+5Rty1rZeAN2m1O8tQkBc8QgZc7pfSQYVyViLuJlT96TabJF7u4Ls4eeIyoQRmVlbhjCQ36lv1X1WYrVWr3Sb633bTHXGFym2kfDjJBlesGVSEWvONtJeoH3ixCLk4tIkdM+9jeT9UZc/c86sanOWZNfx6em7uFsRA/1cBQdjAdXjBqviW9jskZr6X97fMgB1bV2YDJIkmr4PZwOqXDJDrRtyjrheMCxYc9WyB8YpK2wT3yAtQTIOjJTDYiTXgnHIacMlDDfOBzPR9J6OFsfhePhpp0KJmiHpYDsUQadvRTkJpABis/XGEjYIqMf7jmEWFoSz5nTnLWeQPnYgBYS07qUcPMnwwPxoxlz6EDZs2gTz+cgnult7gFts3/PCkoqA7Ckx22pRdcz5HbhUQ0SSytiDoCknMvGWqXCPS6X01g4o7jE/WOUfY8Qv+awVRsj2zmaiUAKl3/CzqZLLqFmzrE0qCzN+PVSa8saClZP0clBO0+mMT0K3XY8HQ/Pm9nFbUb11xO19jK01RFRm9mVGsEiqkTTQ2yaEdZQhGXz5WOeDLtsOJ5yvBN9YfLp3SXUZWKr0d5u2tSYMqecciC71DOnxPzWaHgxZNUxevTC48Bh6tKkPxxxIJQB5OcjtG4+2D+oRdMH7ic8D2sM7AxC4cyghDgcFiXqktvBX4kzeSlAyMbo5Cq+/LoCIamtKhePpVaxI+LT5omCWZLYhkuOuFhvV+UqQ14DsJJ9IG1e+Lr39l7AjDBVAb4Dy5I90KlsqYcRINULBHYoOjIZ9SpPmR8gcA6csJi8v4ytqjk92SjOMw/2BlGolpRnAIu8/wA7Fl9Lv1DlMllL8Ky5dP+EMp6PRT0wsXIvSGpRzx5FbesJy6GARft2jdeIS34gPYb2fd441Q3T9xd7/D+DdAqjXuLp73fW45etBWZ9Lau7HWjbC0dRMN2dOyMRSBGNvkMTpppOegdDJsx15KfBrY/G45jmB8nbvTXG/AhCBOoyPqLI3D+YbGWh+78c23/gn9CM8hrG/y80Vw2ZonQn+Zzm7uHYbvB+b/pC3NzgEHVnYmehMSXGvgmnP2DlHjWm08l4RDxvfCVu4dPY7j2OlBJgtGNCOo8Q5XHozNBMwY/GBWIXUvSPxWjnMSQFb00KjLOfFvx4XCBOQ4p+W4zO9Af/xXaD8l/QkUEOQQoJ9yrqo25aBWcJ45LfzJRIhwX3sQzOdkqwv5XBSo8E9/GMc9keYAEi7sb0r+hr9rCUkNLLDxilQGk2wBygE39Ct+MsDhZzNL+yKVtbazZEEdRfe/pv4rk2m2c62e/R6kVwM9jFNfGvgJIK2SPoN2YLNuFvVeSbLDqxkhlde68miBYZ+kVFfbU+jM+ZcM828mZiw9jc3mMUfy4+yiImWdyfivNmmn9P/DDbi/Nmaf4+Eivfw6D+IKYLk315DVfXRrDLi5X+OeUiQq2EuxHTq1/BPp5BI8pIfdjT3+G5AcqA36LVN6RZawRkKiS2EiR4Oab+a2yJHFo5kdkCM4DvWmy6iLNwcSLxvwh11K/kGMcVQ3EWlg63mSxxO346Of0GcoTmkk7/o15Acap+v9b/ZEyscV7frNU0ztguHsQV6rK1qYL6FROPd47yTTFsiWsY38HF2eBgT+wv2/equvkYyhKeS7Dx85xVdctxnCU9P2cZFbndyb5B/1L1xGugbYVuUrKJ0kvoTz1NPekqpCXuCb7MZqJuVk+OYVu0KdlMrPFW9UWLGEu2xd4dB1PpWJqzxV8nEmqyzXC38WUxbIu+3rAzk67V0+KMLXvEaUbXYbnbVv/JSN7ErSYcB/f3p5O6nDEPOcAz3f9moRTv4dH54QCfOKV4MQsoIamMWHWhjIPtK0v1zVkqu6eJvLIkL8mSYFDkpgf0t2TRAV4IS+rhcDal6KXZouahfVhlH3UdqG+9RqHTATXjkunqUmKQxpNQc/Vt2eKyPLo64hIrg0u2rEfVt2t2WyxQzHzMzbyhTNb9R6AYMB4b+b5dfYBr0Al24GIb7x95GkZa/XaMriMf8r+Dw/xonamXQ+Z/ZOczvWONOdfms4so4z682lN/5sks9XDc6uY4G/djmbvt+fQiZ51ha9LqruO+IalIfaP+zQRPpDZb8DGdXCuoV+W4ZxbTILxek1OfTBVHUBE2Vr/UNF0aDUdpo99ncF17PyKo56rXM9CoOhh2uvUuZQz1zZnT9ZIDrc4+h+jbJWN5li1k0V+V3o+uONAWPJeaSVRtNcnYwq+OsCocKdYktaivIUSRXJ5yweUytvD5Q9QNs8XsTriuOZXJWoLiPp4sfTsrqUVVBKxFLRvPoOz6BYQlWhecca1e6alfymzQLTsWhnXDVUhbdQNLkT2mcv2Z5i1JNTLug7vDXFW3Z/OWpGlRxnipJ6rHZbKW4EGLQffVk9Xjk4wt7Ni8+ZnQU9QT0pwtDnbxKVJX46lp1pY/bCtYlFB8SRZhab42NE5NhBOiv9zBtqSfCqbsIir3HENZwl1pdyOc7odzHOjPan1vFmFpLtqWY6RQ3beIsnR7ciXE6kQtpwf1cBdjmEodEX+3zhJ0RNDHKF6TUpSm8/l0/xpcvuc4zbUYvTYlSktGshEeoOwsUHTue4/TdKfs+JSmJK/Tsrnj5bImI0w7o0b8ZqV9nxz7itvH4mov8ban4lswvqrxI8D9sMPZ3iboNzm0DDFB/ohDmjEl2B91WCYXBx1FlyXzFoekKau0DPvHHM42laDf6tDSVIL8cYc0TSXYtzlsYObXorGaWaH8hLfHxmQ3/kQmc/V4dee18FY12pH8zESMjCopLLfL2MIXmryMC7tOHy5l85ZkbFDtwVB2CEj2s3lLQoOgyswEpscsUrWuHjXIc4f2ZztVdcXkbWmFCLLJVpNuO4Y08Nu2CBNtfJa04BO2gGABXts59Ts2ax0P8p+0+TabGLt7MHqR1Dqn/nwBbdqvEd6I6NJf2KJsx21RRf0nV7Q3Gg9d1Y3ZVN6af96WuG6ZKQT7lwtYqwSg/8qiDRvDPwjHuwjnry0+3qapourqOzkdgezgdM6i8GGZ+keZ9O+yaPM7oqb6VZtzfXYzRUsf9PZHEwYdqn/MqV+TrTnOfGihhukFOsJZYq7a6ve44wom6PbGYJ+1NJjJAvt9DwVylzlyvjW++HfIgrT3KoEEKpOCV6YFJdq5mNo5TN936pSV8QA+qNX3Z3BdanFJ9IYMqpLeF/2ADgfJrzMeUm/MULVxAcLZURiYmCyd/jnOCiY+RqGh76h3ZVDyc6g19fNpXwlbyeXQR7R6t2axxHcrXYpUV/1ipqkugafpoczye7OUjQEZ/jM26Zc0mbgkM4L3SUSFoK7Js8syteOBXBm8P9NAYN4uBSjZvGjeO4mR+a20q7WUdaT+xdN/mhaZqUBCJnamXp5T/03bOK1xoP9G64+6vATn8HFsMPdvtf6jWDZymoeH+get/i7F+ZywwfznFFNnpOYgrv5FEyNN8KY2Wy/78H9JsdS3uH9IcWW0jskyXY3UP2r9P9IycbSSAOg/a/U/NcfoY99/OKn+f4vtMfNu2a+q/4qEzbHhGpf1P6np7GMWb7LMECnDVp/wJqjzsScEb9MIagc8txg7l+psV4cS8/4LT32LN8bnRAWPRuFlQ/v6nHqdZzrnXEkcVK3eELvAZYbOgouSfeUH8CiH4bSNMmyzaNRrPfWTsk73Dwy71+XUv/cum6ioPFXgtIwPHao3euq7M+iy/d3wMgdoi6zYoXKxPp+F8c+K3+Cp73Hl5cEOx5MiDCNkrl7m0a4tqU0ODufJzcanPfWDrkB2ZuL4rJ0fcpjq9AjDYzTh9Z76txiQLYMPMNeXRMAM798hC9Fpxuu6wVWZJTPVIfm8Y9cI54OhjPkzHh2yOP9IhKX+0NPf5jBtnAE2hCuNcHJobfTnPP3tnpnQzvRybEgj9XZPvdOiMUGH+5OFkp+zJVSw6hOpn/HUuyzSkm/J5mLQP0/MjmXHKc+fHO6vi4py7Pm8p/67XeoUVOh2XPBXnvpmIiLYWObjhAHs5vi8gfn18ASlY9Sn05wtLsn0W5vpT6QfYk3OXIW0xOXQBP5ibWrZ28frrsZacj9ibdZYYTPzoIbFcusixpLV90eMpz4igeQ2EpezxY25LEDszyXsDAR3ZPOWpLWNliz83v6p6inHcZb0IWYfRcn6KfgvX3w11pJf4Mw5JGBrfqBOe+oZ6unHUJbwBVYIAWddcBGhLv0ViyhLxzIiKGImIZIN8jnqGYsYS7bNwsTmS5AyUp/W+iszeUuxY59KiQ4Qr1V3pVlbPtwVO9PgIEXUwcwhUxVdhbTELFfT9nSdOdBKzrdx1hIc2bGUkLrVi7g+1JcleoW9+YzWr9BIzuimaAFlr9KR2SDTH/s9rH4YoyZOd7A/nc73EA2T+iZHxxE74rZpW71F2xa7IpyIy2kBYPhTjpCJYp52TBwfmaqvI5a7k+LoPUx+lrufR4mFivszCyeVkRg9eWzxTsclsTif14RgB+4q9K+0+tXYbNtooKDrZgY2ndEu4ElMqEuAhqzZHz6p1a+ZWN/42MONj2r1obhA9sE5jGMCevnrcVkq3ZpIkZEIwce0+vDVFMX0ecQntPoNQ4BymIuuR9TvGlkM2DJn3BWIHN11hrj2RfZGMwGyRXzaeoJleNIkcpP5OKf+OGUgtw3C4TEYfEZfCq8Qubl4Ecm+MscR8WiKY+OLCW3vzQjtIe8/09JTMfrEB/ZK4e50hgNEYEgG+Ij+f1xUus6uRphc6/9Xz5luCfSI5NXfeOr/Y0Lo6F6LmDXrlI6ykU6xi0S9gOnIt7IpRvPUI325F+5vh0PD4LU5IkLEsPYa4XBkX7B+Okc0CKVgnmWW6Z7TpDd66nu9aLR/MObgEL90ag8m4ViG+0ZvsMNITAim2m3UZXn8Uw7jLpGeDhZH/XNO/VSGqD7YJoa7pt7hHQkJGNP8X+cw8jGmjNU53Gdk4tUdcD5UP5uUyWGpdCVgo6LkLZ56b1IiOAoj9Tc5/e4sFrf43Vr9QoLqhJxV0WWjjJ/NqfckJdIVc0MRqb/NqV9M8F1medLEVNDxzyTYYGd6AOXf5/SfsNUQz76CijzKwRGfRIzidHc3QISHkXT1dXn1lx7+ymQ4iHVd0O/y1K87dLzzCvq9HsH7/RGhaCG0XNS/5NRvsL1n7uyYgI94TCH+Ar78yz31H+gInj7b867cQLw0r37Xs4rCdBqdqg1Z7epT3o4YgY4NNKbW6OV5dvmZxdoDz5r6I2843SHmSWgzy/tlefXH8CYijxSyl82Reik+sReNWX5F2B6F3b1wP6yPts+zGNfwFER+xfl8NtomYkAoMK/+3NuEOvW/vNyAHeCALEPU+wxxUJ/KL4mVh9toBp5rCFYaoN9qVV4dcb+r2sVeIDe+utvakG+lCL4fI72G/RRErtd0UN6RSbafYAvmK37rrc6WvYxeMvlSsXzeIZYNwryCWMFHwSMyfpR1w7wlBMRBecTuz3FMY1LETKSI7M81BjNzcWcLUVZGlgcXZKpYbGEUtWw1m1+y7VacXV7wMT0cXZYbRxy59cV2GWsG6GWegYieeZppnY2YhB/ytF4s9Cm5AqtLZtbSRymbMn2of8XpasrjR+FxrNSnCCY58eftvSz9OcrQyMpPVpSleLOncpsLGHVnoxYENfMDZFVudeQzWJ1ipdYLyGv5NNxGRz6IKN/nsFReiqw1K755pJYLzHum/lb8WZh80GVKM7UKFtEuVuSLMPE7Qfl2YAZrX70sLyLjFy8ri+jkSczqZi2oleqiXCfkMZX5ah2ZtS1u4+VHwSeTj9WcSj6HJ02ZTvSPj/n0Io1p/SqiMymR7ce1eZ29iuza7K4rtToVENJgIsLrHdLVTPA3OLxpMcHe6LC2gQR9k/kASrPblx/F+51uzbz7uNmKstzqyRuizCzd0qg1+7Hcbm0UH0oyt0lJIsjbpSjJ3RGrlGwSyQ6SKu9bM8qbJfEpR4MTHQXLqmJDSdRYqEE9orwykN0FqJjh/ZPwXijzKRCmLLY5m/+++oec8HMrrCtcORVhbzkDZbeLlOU7YPmYdD5Ewn40pFfpo6qrWIurAHmG7TuvYutofAhSlhFIrJdXNDtX2zUAWYbVu2F1VblPYcrmwBVIzyxpjcOk2Zfl6Y55Oavib2I6ZtltMm3sfUljmXKfwrQxQar3e3FLMR3mejIwO7ueS8PvgYJTGaa1yYyZec3NCTlxTmOP/YCn8kfTOTEgMh/0VGH/MBrtmNyHPLVkWXcTck/PBa6Hk4sESTF9lmAz5uDhHc7xd7DPaWkjYYkdn7IRV6RzEZ2ad+HWiCBF1TI38dz2K68wob/WXsJqGO5SD5180XR/exSuu19uNe1QczvZ6s2k4kcYXvbZYKF8bTqVT+2ZytozLe+KO7UKJrcfmC+i9ukGs1lrVv1OrduXt6X9QL6VYQtyCy2kTwoYezwEtzA+zsQsEFdk1Ct2cid2XAQJUKjBeDOukWM7TK9f11SeG/60ek3qFsy0f4LZy458+WAmr1Fwhg2viBtMtbLQvMGztcnB2sLYBPHTbeY12r7KtTmUaKFyV9qUF+jmiwNGhCQ6fv+NuLB+zbLfl0fZIBZrt4/1DT1hGUwuuuya1iPnqMsvFBz2U572ahn0IhN4zKVPv+8pOcEgqi9A3BVKZqPVaLeadnNV9BcXSj42Kf3V1jvx5djDvmo/7eS+EaXM43hSLcPu+xXUwr7A9IpdbH7Vr6AhkMg3sYK+/SazFLOB99gRpKVeFu8eLC4GzVTOfdhLdTu9ZrnY9QG1+Zapezno2WqpIVh4hGvhTU51aI5BudhX06pabsvkZDoIliSRMCua5WK5a38hoQJfXJGumdZ0fivsdE4cOYPsB36dfdiUOqcUqEBXRVLO2cs2xtUFTvt0JidAVNvDqTQAXZ+jkThygG6I2XrSSeWtHjiUG022zggKM4zPsn5GO4Zn3nKP1J96uhCZpkNumgVHKSuna98EsAaWuf3cBbmCyWET4cZpus9WwpRotSq74GL8Vp3tXmj7QblTMx/1UOW2TJp237rwyoH4Arlzxc1iQpOXkyZp4VxgZLxkHL0HBbXcvtCtGuTKhnjnq4FBnwi2asaXWzvfkoejQCc7vUAwp0pF89WW05wU5KttZiGeqYnDTNzGzwQbMW72DWlcWEFr4kIsPYmxjkWiIfI1ucd8+sZkHTgkcrLmTVat18V61Dm1C2Pl5ceAaB7ctg/HGCYzKX+LGRxxNMOTEOnHb6Lk/W7YPOSIPyOXL6UVVN44XWalqF4zzejEM2av7dftx1Vytg8T65x7q2NAw+YfMAzXaJcdSl4hJ0fIwZgTivpHT60OF1H/hDItokSMWId/Zs8ZTi9POOziIckJCrNcUAUUL0IA4WTnSopdEpkg29m8ZUNjBbUsb1Nnkel0a7dOOYq2UrHnosXR6MUOSJ+0lJoBqoLRAGSgnIximehEajHGM07Jg72WsSq5ql+kGCgfXEsaKv6OoqqbD6/ojvl+kXeczLPFyhbrxWInLcxyw37+EBLlP5TA6e+shDKOlnmFkexxmtmi8os5a9mCSL0spxd/IRAxsXh68mP9fYid5UPAhYSzb7h4y6O0hS5oLuhQjQS1cBOHriYFmYu4HHtMN42S4VNdFSQrELxEA6SCuD0EG6m3tC+n/ipxWFDkl5O+bTpvvGt8N+aagb+LHbk8nRAggclgXDS9kO1y4CCEwOnYEZijaMKvaEiUd3vaDfF/WI+IM8V1IeXG1Esx2VEu3JfmUxrpvR1QZpSBuaM5du8ov22SOznKDZuO/DIoxthb1BUJPXBqNzEYlD5xd7bV6tUx2RNpg2zqXN1lLm3XbH/XuTKTcrWqT7J+ZgNL4Fbctjo1NzKOJW5EcnoRtyk2Tf1pTp0xE+aE+TpPnYWda75D63Mb94l7zO0JdnHSm41rk2Z4mZMIqOsXWauX5NQNiyizupm9G01jwaXRQXcqIka+NyWo0pXivnG0V9XNiNDOOeHVnL4lyaY68tKcvvVYV60UMn297RhBLVb1ozBx1yRIenuiVAH9ltuPtrlYJSzidl/Clpn3x+nvWnAz3CqpcLm5E2KkzvsX4t9IYM3PN3EiOCM3CW3U68YG6YdKrYf6+GXAXju4jyTH9tctV+V8TS5/Pl17Jrwjm3KkChq1NljX1itYDlU6bV/0ed6h+XWIeanLhHsNRkcfrcWjqezXklvtC/1KT2xT7HdZYrEdUlnv23w4lMvj2hC+XoIqXUmQuV1CjeeNO5qPbEOvznHoikktYQ1ZnhHT4LAxA4tf9tkUbdzbO+XGEM12egby5qM5KkVL8/jTJ7Ygf1muHtGVwp65mwRaCoVRF4lQvpzQ1/axmNVBJD9pW9llvaFNWZy4WkdouVy0nOCK7OIINZN9ifwags9M/EnTwqa1vEYAp9AYdwnt5Q7NqMDKqREtClyQT1CcACBMxw4qV2feWOPJrbi3cmjGpuNBixsSdy232JX8NcdXuMb4lhYpt5zcjgsoluLKJt2RCxQcnJ3B5GgQyR1F6B6OsWUccEc1dt1m8XgmXwlloZmIqa20YbUw35AvdrPN7djI59OVtuWGaX26MzDj2VZeBh2w6bFK7Qcvhsc5Wk5V8zSgg0Gk+jIH4THX6UpLLIHT9YFZv3ANjtkE83ABLu5CLTGZXpeJZ2nhNB+xoCSubX5LDuTa1XvTeXQwnbusF3HqcnBsA5LKdjYLU5tzVF+IAfNsDVAtNlHTiSvLu2olDPYBh8h5jQislk0fkwb1MBC/gOW/zbYc7BBkltMQzbnWI/XmHJ5rYgkTrwWTkEbQVccnMGCC8LorbyLxHtvU3iYmUeayhIOAtzxl9zONvYVo2CS8nGS8q/pYkT7mgOLRgGEso6hqKWuTZnj52BAY1DDp3FtznFriA+5cNhG5ihOuy7UUTWzGda4QSc60oo83G3cvWOBD76KYTwadNz8cUz+DGRMjUDbaxuKOFpXSqbGbJPMquolqubzx0oO4BqKLYpja2PIhbs0XrC/5IK7TMUPcZs2DFaqWeRw0IJhC9GnX1SmYYZTD8ZjYYE0wSwmG853BLC/OadsMVeXkA4s1dgKjCUWCwBbkONxo1Lo24y1Wxeiby3kkc2C4IDB5Z3WROZV3rRhu9/tDMrlAJoeIn/wSB7sSmY7FEtfjQTSPlc5yV29Dqa5GB7Dhou2dOQSUYZ9H7VnMCf/c9qIexkuhxvFIPo/jRYY+Wfy5eGj2R3VM19VNS4+u0dEg6ZFj6jpBeBX/faGTxiYRa0xtHldGMbd1kaVlyTpYolIir0i9K6eXKSMSYn9GTCgIRcC0I3DMMBa2a/PeprjpacBEfGdxRcNhmcM+GkCVKvfw8+1wMGdKWf++RIRMcEeVCOcnOd1jm6JR6ZB3Z0TL9BlxYlwTpvTUcx4SAUuJILyAJS67iXV8C7JFmK3kDazmffrJdXVOpYuBu/SV6TYNHTFOtaxXhyHbV9i0PE9gCzAPxrJzAZbTa1bEsTWP1Jty8hWrRdvLNVdOn6KpGb1dU6fNnMU0VWsIWAlnFvDta9hfqj8i7rAjidlXRLKY1OsOyKVKE6n35PT1O5lZei9u8NHCfLwPD5hlvzUjgoPsbpJv0q3jjAbMNkqk1c0ZkxSbNm4n8IDnTLAzRW/PqVslGyRSfEdO3ZZMStEcvQIm6vZd7oWj1qQLsaur1R17yfy/P6fuDJAwYZDBwd6Dh6EJxkfOBRY7gwBwfQ9YpiwaQbguJSPy9PaYCTRhFbecUBDbGHuz7R5HPaMT1reR3rng+8ooag+YKVEkPQffCfetUbMxdKYETwy8yebmQDKpyypPQyVxOgvs/hJ/XybwwHx2UBjkOQzAdqFmLPsHpvJyBKonH6rBCWykAXyWYNoFKsjMQUTjUgEI1f7CnNnTgvn0ANcOFsmuPGtO9/Ej7fi9heUzisoyxcR/pAYHWlfDdmiRdpJy+RgmhqUAaWk2HQx36BRXIwvUO4ty/zA15vR1pj6CwTyI21Ef5zx/ECt8O4u2tyXqo6zWBoyRhfKeIFRiELJNeei9AczFsdMK9RpP55GlMxuR+kBOF4x+qJdovSRQaRCxxKwVfrxcJQzGbrEvD3Z2aEDl1Uok0aQgCeSuxvmudOR56kScL7MH0nWDfr5aM7/Tp1MFddKATh85DpvsenJSOW0bbg+ujBEkiDPRwiqQ+6oP5vTZzNAShf9QTl23C6dNewZgGNcb7jXUiGWDlb3SOpxHo2HoT3bGGCpO62LamekbDGEboWKIH1E3ogdEGDADY3aEcW8ynAZzxKo+mdM3G1QnzKBu2Y5nPVKf4Ow7C3fsig/CbzgM0ScXW1xWt5l2SjOUbC8wZ7J1OmyHfrsp8zlMExYVub3CU3ccTAnZXZnsFI3aEOhUdyY/d+XCJzQeq3yc7HG4Z/Mr8o6pZq9x6nSJETyhMtrdLe8dyil0LSM1LLq2zsFS8nGNJsUoChuG8X+MKPIWdvNdsLlaZGwxE0ULSzvCPSqaXw4h0+4e0hMUTSxvExQR8aML1RHWe7azd4Um9MrB1bjVaxHH4ztxcG38mowvVheuIxlCPEJYWhMoKs4YnRy4zWH7l2xJ2hOy/LZAbdNCc5FD4eBa2KVO/ADMzJTy3F9hqPRJzB+lUfFfLtMJaUWU1OOsDly15z89iwsNnz/EKmTjMgapVuSmyy82YabW661il1QHXfl7CEBesV4zf9fR3oUAyPdlOn7g/sZboWFucpayN4rLcSOd0D7nShtb+sKNJW1YroUs16WYa3FiA/bsIo9xwbemvF1mzOVwQgnTDnCmcPGNs2LxL1CF8NGDGaYH3beov8D87btrOfVX4q+4l1kW806i135SJYnFqevkTUlyq+T+UJbNyl/Jkb+BYv+SjA3pm5su91f7KjWZSaC8/2CvWBdJF5otbt0kR2aJezb5M4BGZMtJps+1VEyystGRP+jZMQXkV7P5LOEJ+/H6NSPik7RCcsoKv7YuvTlNrab9S0ln6G+/wT1/v95qnTcXh2fToaNnYZJJ5PA5/OQUXZxdPJS4j4njJXrXiKVrwlvMlL1jgSbVTWjwHAw+Up8nDhwXiB7h45sSiWDqIQijWJ+hOu0uattn2fviqgG3iSwyao/E7uiJtTjs9QuX0Am9MNmUdohJJ08Z/u5YXyyBT6m4T/vwR1NhfpShWRiZeZcoEyE37YTifJlvc8VsAoX2yoez1+LzHs88oknfy+Q2zOrICxe5tBeagvlwksmSWwrMnzR1uWXTgMusMOEt8+koc+OH9Z8PHm0Tnt6Vxy7cnfrytTCFqnTsX+HUo5Y04NkrRS7wscP4k26C2GS13PnJ61JVjy9Tih0uievSiJa/H2eXgtcsbpLkiu7Da/mqfA67UL2Hf5eq9/LvcvU+/l2pyiewV6v38++JqhxLZLRryU3OyfUWlzsCnWLdsb4CwNNCc6Yq2LOYJ5LrFi6Crje3+Tf05N8bG36zR3pTXf4mwM0Vwd1S6fLvrRUZ8W3rtY2e4XE7ULnYdgO4o2Evoe5k0ZI8Tl5VPN5v8O8TRKjGhD0xaDAtAE+SXj2ZCyDh80UP8s9TKutS+4uLpZJ086nuHvVLOtLyl3ZkAF/m3mo8Tf5AFOmXy5+eJX06q5HkKwL7B2efcd7+NQhMDcldgRHQ3TKYewRxrwzuPvenD55ZMn/54P5SRWbmWUHb2IgHTBeevWWS57Rr5a4d8FcFrV7HfK/nubWGjOerOSjKCJ9XL5bMnw78mvivqD6/1Ot2jVyK9oIcqCT9dxdxqHc3nrwKsJWhL7pYxEABr7d6Xctrg/A3VsvMZLUBjXRL/lJgvWK/c3iu7m/YhwjnxY525PmyekGsbk0bUr+v2LZxbdvU40tF+aucQGWiGe26z7TTtMi84lZbrbkuDHw3yHU3wRtoqnyOz/KpclK2UC3wix3zh0LOZd8OnErV/QnsYL1GM9HVLyL0bkIspv5TKjV50dcyfXhqJf1I35fEgnq61MQeA36FnYBnOHHeJSnaJP28G2dAenEPNlxafSYan/3247M65s+OPkASM342sPA2vXpOV95vADyvy3ZcMrpVTKZTl6t++Tw3FcCefEKu7BuNznE7LxqVp9M915NCDGfqLMU4MWAi3uVk9lfiebZtrsYUJ4Jyh0sSi10z35cS6HTQrjWTfp2h1yTXkaDERhmvF22yrd7Q7fi+tAp8I/Ndaln8TTIC0ptFfhZ1i3SQ9FZJbZu3mZ7EwrqdJoQc8A5hS3qnpI7V40Rq7OCApSI3O0J3vt6S2ao3ip0He6ZGwz6GAULPGmY8LUNdqRUtcTuBHrSKZbt30l4JAZ1dMGFPTC3Rk9yUPLnCynO4L/Yb7Sq2VVr80nXfRO6+DPtlF/bTWD5+x/xRni+vNQO6YWt9Zbza7hV9Nq81yNwfxPbsq7AxTI593fFcLA2h4jj71dQUcX+NjI/0+bF32hFNQ4vN3zoN4sw9ZLpx5l4yvThzH5nNOPNMMkZVJXM/mYckY/p4IbH8D8seYqfua9Md5utk/bqlTfbrZRqTP6D9CLuo/cPd/cax5/ueHkbDsvwGy3wdyXxqzAQ2rCcSssHL9v+SvF4o8sGz8Zsv+cq2vyt4jmEmfNmYcgYYETY4fkjLlcUFbbu3+txT2O9zqvT7nGR0hQCOeE+LxDnMYNH8WctrfNaTnFe+5m8HVM5ZSGUe/XbTPxenDSAYKQHhFTGvyS8AUle7sOBqZ9604TQdc7ZHEwcXiNYYwuJsNnCM1nRhoQVxkYyzJp94TY4GqB+zD6DjQ4JXM1OasyXxY4/8Vbzww+bC7pV5ccOkxVfkjw3K/OgjndXXMKtXlfsUMrXeIEYyTMfvVfCrHvsNSUwea8Jetly92ru6RqYDr6UD/wsuFAAAhZl5eJRVssbP93XShCVhMZg4QlgEN7CDSBShuwMMHRecEb1uozRuLDozAmIH1BFEIelot4qoM4KiTILo4yjuKN1J3EBmgEESwAE1ggxgBxGXUS7C1bm/93wB+o/73PF54qmuqlP1Vp06daobx3GNz3T669MLH87PT5hpP8Yds6Rg5nnn33H2FXdOve3SmddfdtOYK8+96bxJkZg5zhQap7s50elpcnIcY1yT4+SOnnpj5S0Tp8SM38m72xjT3nTSwn926WIaXGMcY/2YPibHzR17/eSJvc/8//SPE9nZmamNrt3YVxsvmBKbOH3K9b/vffGU39/R+5fXT5lx/W3Gb/6zmQcdAMx17rEgHEDk51428faY6T7PmBG9YZyK5hxzmnVgfjVxws2Vtxj74Yy2D6c7Y6dPnXHzhIm/nDphYu8/xKbGpg3rXXnW4IG9b4tN9MhZJqfGmGFVxuzIdZ15c74fPq84OsGtmXZPN9/viqOxHJztaMf/BuUaf4lx4vveKKhKBmrdqqVjr/bB35GlUeLva/x9if6IHZ+RdARbZzdHzjOO41b1/bvJljj+WeNj95Fotypn/jnZEtc/uzg6xDg+t2rXnQ9nS3z+2cqtk+NWffBYJluS479rRtNPxsl1qy+L+bMlubI2wjh+t3rV6rOzJX7/7EGpgcZp51YP+e8bsyXt/LOXJm4XtupleYuzJXmyBjb8HH/numxJe0k8P9XrDmdLOrT5yXPjd80uzJZ09M9qjnQ2Tns3PuSskmxJJ/+sVOZe43Rw4/umDsyW5PtnDUrdJWzxpUOGZUsKhABs7Bl3yyXZks5tezq68eOnXJst6aKMBo3TyY1vCM7MlnT1z4o19bGoq1+6J1vSrQ11vhsPT0hkS44TgkHGKXDjBy6qzZYU+mfPaLrAOJ3d+PKz0tmS7kIwzDhd3PhNHzdnS473z1qaONki6N2uJVtS1Iagqxvfmt6TLSkWgm42B/MvOpwtOaEtB363ZmlNTrbkF23n09GtMVs6Z0tOFLagslMzrv7EbEmPo9mpeeuH3tmSnm3YyE7bjTkiKRE2LztLn+qfLel1LDvjqsLZkt5CQHa6ufHCgVdkS/p4FdLecezNP9IGjHt3rKnMV7h57s41B30DJw3deN7xsw9/ucTX2X9BjsnNtDOd6C5qLDmmnckzJt8puJvm2LmvmVs9JjGvesBZ8853vqiqfuLCqkn7p1Sd//CH1YWHCqurO/66+sBdd1VP2vBC9dZ/b6s+/+av4uO+zYkXrugWX7//tHj11+fEw40Xxw8Mujq+fPeN8Ukb7oyXvPFIfOs1f4nPr3kjfn7o7bjZsCn+1oLP49MGHKwp/KldzbSz83GamDKv+g+zq5Zu7WnuduY4tD1zr2PmOmaeY6ocU+0YmnyNY+5zzDPOnCcWnuCudc4065ycvztmg2O2o+iaP7mO3yEeGiO9tWMNSVNn85osD8Vh22cxNC/fa7aF5hfi9HRLTC9zsqOUeL3YN3vRwoU8FI45xfQwBebEO16ZflN/E3Cr0PAf97RrnNbauhCaxhWRDAwrh3gxLMJXUbTNEq21P4SbI4PFaF9eHD29PBnoArNHua85UlROusu1VjYdDlvG+Ni2cEVRFwSNYZ6P9uWlqVr2/xAuTS0I+0pTW8OcdTgae9GubnG03zGiLvGqiOcs4atset8S6czmsDH1srYn3Fq7mg/7QfaRGAcwuwfGgbAFICIay8P5fjS7lMPYg6QYEJsR9Cz3tda+D7y+BPCsXd1kYNQxgkx4qWA15p+OcZKBBfYD4gWh1tqO0huM7TYindkbJplDLUH854HHkIxbANiu3FccvR9GfnkqU2tX8DxniXRmObFZxopwcTQfxClg5JdjLMXePUrVCjhfIF0OI6PgloXHx1pxvtiu1rqIusQMMvy5tlwFsY2/8wC0Viksw109KShD6/mwK4JovHBYjXmRdzkZWISbIfXoT7REc2QAe1YHfeNjn4fSmemh0tQS1kMhQIygTsIYGRGSf8uobHoDN0tgcCjelgOAGEDKc8qt0Wgsn7pZZFdfNPauJUpTn7GiYcz/gPcA4fqpMGwkAwUk8Q3iLoCBFxFyK402HNoiYJ95SGVU0OVFq3GKo4uAuSQEgNcsUZdYhe6WEOe0BSIXiC2kZbAw7+bDtWRzNwz8iWiOPMNfC/lO62i3gKYZqWxsV2pfQ/0rfC2yK8mfY4nW2ms9DeHVlsqmM2Bio7KpJwafgdETO3gRIbfSsDi0RcA8GyCVUUGXF63mv4xTmmpP+doCXA6TwzTmJo8oTWWCVlTZ1BUjEK21D3E0JuzWJRZ4hO61FR2xY979P+tcpXKUQOKJWA2zoTGE1kctYA3l0Ke8LvEUh95fTeIWzuT0cq3F0TM9RkXRUKtR2RT0trTWjqTiDfZH6pL0sAQvCkGjUZoazUEPpT5Gk15siJBRaVgv2iK3smHXfVRxRdEDZDFQ76tLXGGJaKwPdhpUxdtA+VtwLAbDDyFfOjMKDMMxNgpmImwZxdG38L+YMtkqxsfEcRA7felP1Ghr7ZUUa355NPaAXSm4Zy3RHHkTL+1tYOzPAdRGQP0sG1uB/R3MFhK4V6n//Bih3soZdKSu2wiiMbS/nei0EZVNL4bIf4slrL1k4H6Qf4jdoSEC/QBGKliXWIHG6uEwloE4UH8kFUrKQpJbJ92XLVGaege4W0IcTBMMHzW7DYeDdJN3ku5xfNiJgKSIKE09x4dtWGvUJWhCYzP734WxQxG+jMY+GAvtipc5liiOXocdNFpryynxTWQ6wNogjRKIZ9lfgmG8iNAlaI6UwuQS0FGIJhc718H8R8iXysxBtY6T8mIxezntVOZJvNCzmiOTLdFaOwCX7wSplh2c4RRKlftiDqpXjCDsIFK1qvusBxivw1gSGh/boru7gwI5QDJPxyWnzRRkD1cutaLxsiXSmQ9AyWlXFKkz5FKk+2Ec0t1V429lfy7bPlR77kDVvw44rQ/qZRMxI+yquI4SxiwNu+Nj20GzNEypbsfPSoL/CMZaYd3Ah4+B1oilXcqXbv1+tBbaFca9lkhnbkBzZxhoI4H2D2AFWFcLSQ8y+hr7e1DMTwmJ7s9sT5IMVLB/EJISuRtNBF9TY5PZsjrEAVZxvItD0dhiu3LmL1iitXYlHpaHsPEBft+B8SEedkljKwZz2N+C8ZIwTShPnUZQc7nE9ZzkYTSmqRN/SQE2BVUiNK/h3Ko0RobUHzle8yNnXVFUyjU7HOaWdLMEIXYl836sduKP80kG8shtIUwHDyeU40rHWQJTQ0NvneBH4D6JE1xlVxhLLdEcSQDmRD1DE0hCN7ZUkAOfrvhpEF+Q6tOwlQpbRmkqSdwVpPtqpWsCMHugkUBAraUzSyHeorxW2ZXsfGQJvemttetCINXbuJ0CcPDkykYeXaU7NjoB317ErsRwEdu60ROmqV2UEuVUPRgDURnK/pPZ20GMXuxdSe67U3S36Jp3ZARrClYU/URQJkim/klQfeuLo6vsivVHLaGrXpco0BvTBWQa/9Zi5xRd88lci1l4mQwz5THom4S8NtQcYawi/aDrD5ZxJIYOnQw8CiMIbIVND/d6RxDYhwlsqLLdgUwPISAhHah22YsP/fg7GUGxNAai3gmpd9o8M6tzjCOMqnVesALS+rpu2nuWSGe+A867ykJXgt1AwXUF9Jcac4Svs2aPrsTWkx5bwlmfUs75nA5jEMhHc3Bnq07GIwnidS6CcDnd5o/ENJK7/IpdMfYKkgEC+KQlUpn5ZO5UpaGK4PoT9RxSWqJHYiaMYsKYifUCPb8zUf1YfVDEeuBNZX1HrXMSENUdxoL9BQVxLtI6PnSB+ZTu5nobuOLWahwhSWV+0WgxihBojq/RRlGX8DcqLIqrAfOng+SVBgWeDFzYgPmugB9T760D9KyIOE6Ou5K5X7Wlc7KXX4Ukx1pt5qOxJ45AesJirEv8UXvPZe/DAB4LoBovrGRgDiCmwrzJC7w0NRZXWoeoGShHI9VZZrI3NygXvAT1Np30rAbl15jrGmzCo7H7GhS3VjB7CfCqQhstNuWRnpaHgzbiqEiEifNNJ51ZhhfGGY+wRbI7mEUcFfEQ03FaaFJnlLvNkWvCRwnKVZfhGszn4GsCfxld6Cmg+xv6s4inQYxqkvkqjIfsSqSPWaIusYgAV4ToI0+TpVSIL8HYqg8xwb2A58RwrD+LZNiwusRTWtNk+DEAtKRLUzVyl+aoJwHEMN2M1BrkUHpAvBOMxnLxP1Eve0uI6Rn/LZxWvvqHF40dkzTFjY9d0mjHOUVLaGfhvI2w80lxNGgJvEfw+h3iK4Hzs96nm3GSQ/eZByzeweLoo0Sfzx1Yblei32iJ0tRezoq3tLXW5cNB9uv5Y7ai4FDXsNWVa5fwGBrHmiMduHY/hDh4lyurge1LvDDBlaY2krlAvfe9iRkvGnvMEs2RKuzY0ee3eEhRTVeBeKhOoQLG/VRAEA07R5UdI45mQIS+BysFQBGhzqiLpEcRbJcj8WFqBlC26MlKwNAgVWtX0p22RDS2jgiYVyqbPsFRLlt2gZGJRhORRhyt1osInTTPJStTUTLwKcQmpOtwu0NVlrbq8qIVL3ph9gG8EqNoVBRdzv7N/I2G0ehB98a1s/hLhM0ayp7uAOwW1dFu0tmSTmdSTOo3BOnQ8ynIAuaP+ZTBXI1J87n/byNNkZVWxbGbCu2A0S7E0iFMjgOW0JBgNcbHfgPst1H/DS6xIaI5cg52LmZbJsg5RZCM4T0qY+uw4YTezwKSUa0exMqmNUr1bup2DVclBbJmPYRC1IK/+QAhCSI0O0ijsslVfxfEPOpLEPPUzgVRvwCMxigaQqQtWq0Nj9gJzIvR2KZHXRCb0CoD83qdTj8ka/jgATPVJFJzooYiRjUR3BZ+Q6Fq2whuoqHhaGhrI/hCGqLZbbIEyNciGkvVvA7jlSCn9TQOMmk1S60gv9ASFUV9uDf36oC+oab6sOUd0rFcFb2AYP2gX0BaxoRt/VoEquijhG4AiSkjwl6EfTnZ4gtzRVEljDdJ2yN2hVFniWTgVaKksMHJ3u/xuY5cnKCC2gLmodjYgvXJYTM31zjR2DPAs3OEHr2+9RVFERDdGSSADhjqD96NHl6+hWAsFxs1eBklvGejOkrvyFBc9MHdRcScp5Rfh5vP2aunY432PozGi5z2M3aFkbaEMesBwxxF8WBsL1v2YKeLjH6Dq4F80DrWY+i6SMM+Tqql5sifSMhaDuFpuX0LY88ifcquvACzjxGK25VIBNnQF/4tGHgfA5/qAm7C1y58fcqeb/X27QLiv5Hu4kZSjCKSATW5FhhFKkZltITxZg1b+mgIWonB/jS7ZXYlq49aIhmYByo0KopuRrWEoe5yMDMmVTaNxG03Oqi+JrVX136WU6UVpzPPh1KZYprsfrpeP82vJ6BSyt5LMMqwU5qaRzaCzMDL7ApjrSVKU7tYy2TjZ7YEsOEH5UnSUCsvotLzKfIORxjfgy4HO58pzQcJ+294+ASk74YB9AnGGtXVDLGvBK5mvz8rh4WMq/eRjELwX+QxUpkCktIJRr2K0McTUEZ9t2IsoXuyDld964/UnaniDWuOPEQhcNFE8OOaevqfAfAXtYgVmNd3XP16uFHwNoJmB6fyERpfqwG0EOJPHGYLWu10Ki1A7EJU+mrLManGUpmehFePDQ6BZ4O9/YG6yK4MYNWW0HiuHyAI9VL2atAcBe7uYgxGol+ttOboaj7ALciRMRHdiXc92NmrO9JaG8BYkLVMTWw6kIMwnrQrRfC2JdSv7DHpAHRMqYwDs69stOfD8WRXK0GJUN/TVy59h2GLQyGoZL8Badq7DeSOONIw7bx0A/7XhSyhruN6X0naCPLtJZzVmMf40Ug/tNgNFUWXsOF2TTpjsPUov0iEwbdbvyieieTxBo1O3NYGYjseSc/Gyqb8MAfdiOl7KN8yDbX3c+y9Gltrn+BB+baBk3tB979BhcFvo2KsD/HdnTd+c4h/11N7/YQGCIAjSMwhqoMRggg3KaBVoFmrFv8uzjaBJAWDu5sM6OvDLv6eg7FXhbgYja/RSNqV7PzOEipT/RqIjTNI1SdcwjOwvs5jMJwQ1iiyzPeSdOYKCvkFPtzL3zI1keXsf1Ilt4V9j/AhQ8rnyPphXI3D4GEEfTxGXeIzutk+bMwPEetnqOfQSVchCASx/jyMIfTb++yKxhBLJAPfkcDdQWzMpLDup+eOJJGdw6T2BDz0kvWTUN2H2kjgvifr1+H/cdxpqnxc967OEtHYawS1Woz3Uf0Oxvsg5DUQ4Y0WK2FEdNNexvqVwNVX9ev0MuqprZS7jqjMRXUdFc7XBJ1xcfR5mPeA8K8eI53Zgcu3OOt/ydg3HK2PajsVt/ROGdMYmQwk7cqWlZZQDTOQSeMrTuhf/HnHbb8ttta+xIe0vma8BLIlYcpqviXU+5ojj6hv30pGq1G7lfO/VOPxrQSwWU/KrTi/EKgTsBoJguoqfK0jxWF8j2wgb/3Y+2DD+NiPRFbbQCE9T67fbEgGDgW18sYdovqXp/G7gMNbzgP/HtXbMhy830IsDlY2OVgv0yTZEUQPsV/r9hCXqyNQY14CeTXxfRyqYDamB8TT+B7M33MK4gIQvUIA04G8Qm3uQSJKs8VLgAb9Q0FjLlErep7cXkLmfuQ4f62ZvR8bx5DbMJsr1PCuwtoIWtIEBDwUygT1TQdRrnqV2xzRpzxJa+1XNp06QeKcr+zBfMmuNvPq+rgRpJWoTSca3gOBTmfew+Jg1LlCCkt7FGcygDEFrinNWw/pLRHBV2sRzZFT6XYOvgM6/m/JXBlB6NvqUPXkBYQ3HMahoFZ7FIrbqwr5sdhUDLSGO48RR0UijPlf(/figma)--&gt;&quot;&gt;&lt;/span&gt;&lt;span style=&quot;&quot;&gt;ProvideCode {totp: u32, step: u32}&lt;/span&gt;" style="rounded=1;whiteSpace=wrap;html=1;fillColor=#B5F4D2;strokeColor=#82b366;" vertex="1" parent="1">
          <mxGeometry x="-1180" y="390" width="180" height="50" as="geometry" />
        </mxCell>
        <mxCell id="ajUBVkdMT1qYDPF6oBHR-10" style="edgeStyle=orthogonalEdgeStyle;rounded=1;sketch=0;orthogonalLoop=1;jettySize=auto;html=1;entryX=1;entryY=0.5;entryDx=0;entryDy=0;strokeColor=#DAE8FC;strokeWidth=3;" edge="1" parent="1" source="ajUBVkdMT1qYDPF6oBHR-11" target="ajUBVkdMT1qYDPF6oBHR-9">
          <mxGeometry relative="1" as="geometry" />
        </mxCell>
        <mxCell id="ajUBVkdMT1qYDPF6oBHR-11" value="DisplayCode" style="ellipse;whiteSpace=wrap;html=1;fillColor=#dae8fc;strokeColor=#6c8ebf;" vertex="1" parent="1">
          <mxGeometry x="-930" y="390" width="110" height="50" as="geometry" />
        </mxCell>
        <mxCell id="ajUBVkdMT1qYDPF6oBHR-12" style="edgeStyle=orthogonalEdgeStyle;rounded=1;sketch=0;orthogonalLoop=1;jettySize=auto;html=1;entryX=0.5;entryY=0;entryDx=0;entryDy=0;strokeColor=#DAE8FC;strokeWidth=3;" edge="1" parent="1" source="ajUBVkdMT1qYDPF6oBHR-14" target="ajUBVkdMT1qYDPF6oBHR-38">
          <mxGeometry relative="1" as="geometry" />
        </mxCell>
        <mxCell id="ajUBVkdMT1qYDPF6oBHR-13" style="edgeStyle=orthogonalEdgeStyle;rounded=1;sketch=0;orthogonalLoop=1;jettySize=auto;html=1;entryX=0.5;entryY=0;entryDx=0;entryDy=0;strokeColor=#DAE8FC;strokeWidth=3;" edge="1" parent="1" source="ajUBVkdMT1qYDPF6oBHR-14" target="ajUBVkdMT1qYDPF6oBHR-39">
          <mxGeometry relative="1" as="geometry" />
        </mxCell>
        <mxCell id="ajUBVkdMT1qYDPF6oBHR-14" value="SubmitCode" style="ellipse;whiteSpace=wrap;html=1;fillColor=#dae8fc;strokeColor=#6c8ebf;" vertex="1" parent="1">
          <mxGeometry x="-1035" y="580" width="110" height="50" as="geometry" />
        </mxCell>
        <mxCell id="ajUBVkdMT1qYDPF6oBHR-15" value="IdentityVerificationUnavailable&amp;nbsp;" style="rounded=1;whiteSpace=wrap;html=1;fillColor=#f8cecc;strokeColor=#b85450;" vertex="1" parent="1">
          <mxGeometry x="-1100" y="110" width="180" height="50" as="geometry" />
        </mxCell>
        <mxCell id="ajUBVkdMT1qYDPF6oBHR-16" style="edgeStyle=orthogonalEdgeStyle;rounded=1;sketch=0;orthogonalLoop=1;jettySize=auto;html=1;strokeColor=#000000;strokeWidth=3;entryX=0.5;entryY=0;entryDx=0;entryDy=0;" edge="1" parent="1" source="ajUBVkdMT1qYDPF6oBHR-17" target="ajUBVkdMT1qYDPF6oBHR-21">
          <mxGeometry relative="1" as="geometry">
            <mxPoint x="-1290" y="395.00000000000045" as="targetPoint" />
          </mxGeometry>
        </mxCell>
        <mxCell id="ajUBVkdMT1qYDPF6oBHR-17" value="IdentityVerificationAvailable&amp;nbsp;" style="rounded=1;whiteSpace=wrap;html=1;fillColor=#B5F4D2;strokeColor=#82b366;" vertex="1" parent="1">
          <mxGeometry x="-1380" y="200" width="180" height="50" as="geometry" />
        </mxCell>
        <mxCell id="ajUBVkdMT1qYDPF6oBHR-18" style="edgeStyle=orthogonalEdgeStyle;rounded=1;sketch=0;orthogonalLoop=1;jettySize=auto;html=1;entryX=0;entryY=0.5;entryDx=0;entryDy=0;strokeColor=#DAE8FC;strokeWidth=3;" edge="1" parent="1" source="ajUBVkdMT1qYDPF6oBHR-21" target="ajUBVkdMT1qYDPF6oBHR-22">
          <mxGeometry relative="1" as="geometry" />
        </mxCell>
        <mxCell id="ajUBVkdMT1qYDPF6oBHR-19" style="edgeStyle=orthogonalEdgeStyle;rounded=1;sketch=0;orthogonalLoop=1;jettySize=auto;html=1;entryX=0.5;entryY=0;entryDx=0;entryDy=0;strokeColor=#DAE8FC;strokeWidth=3;exitX=0.5;exitY=1;exitDx=0;exitDy=0;" edge="1" parent="1" source="ajUBVkdMT1qYDPF6oBHR-21" target="ajUBVkdMT1qYDPF6oBHR-9">
          <mxGeometry relative="1" as="geometry">
            <Array as="points">
              <mxPoint x="-1290" y="370" />
              <mxPoint x="-1090" y="370" />
            </Array>
          </mxGeometry>
        </mxCell>
        <mxCell id="ajUBVkdMT1qYDPF6oBHR-20" style="edgeStyle=orthogonalEdgeStyle;rounded=1;sketch=0;orthogonalLoop=1;jettySize=auto;html=1;entryX=0.5;entryY=0;entryDx=0;entryDy=0;strokeColor=#DAE8FC;strokeWidth=3;" edge="1" parent="1" source="ajUBVkdMT1qYDPF6oBHR-21" target="ajUBVkdMT1qYDPF6oBHR-5">
          <mxGeometry relative="1" as="geometry">
            <Array as="points">
              <mxPoint x="-1290" y="370" />
              <mxPoint x="-1420" y="370" />
            </Array>
          </mxGeometry>
        </mxCell>
        <mxCell id="ajUBVkdMT1qYDPF6oBHR-21" value="Start" style="ellipse;whiteSpace=wrap;html=1;fillColor=#dae8fc;strokeColor=#6c8ebf;" vertex="1" parent="1">
          <mxGeometry x="-1345" y="280" width="110" height="50" as="geometry" />
        </mxCell>
        <mxCell id="ajUBVkdMT1qYDPF6oBHR-22" value="InvalidUserId" style="rounded=1;whiteSpace=wrap;html=1;fillColor=#f8cecc;strokeColor=#b85450;" vertex="1" parent="1">
          <mxGeometry x="-1100" y="280" width="180" height="50" as="geometry" />
        </mxCell>
        <mxCell id="ajUBVkdMT1qYDPF6oBHR-23" style="edgeStyle=orthogonalEdgeStyle;rounded=1;sketch=0;orthogonalLoop=1;jettySize=auto;html=1;entryX=1;entryY=0.5;entryDx=0;entryDy=0;strokeColor=#DAE8FC;strokeWidth=3;" edge="1" parent="1" source="ajUBVkdMT1qYDPF6oBHR-25" target="ajUBVkdMT1qYDPF6oBHR-26">
          <mxGeometry relative="1" as="geometry" />
        </mxCell>
        <mxCell id="ajUBVkdMT1qYDPF6oBHR-24" style="edgeStyle=orthogonalEdgeStyle;rounded=1;sketch=0;orthogonalLoop=1;jettySize=auto;html=1;entryX=0.5;entryY=0;entryDx=0;entryDy=0;strokeColor=#DAE8FC;strokeWidth=3;" edge="1" parent="1" source="ajUBVkdMT1qYDPF6oBHR-25" target="ajUBVkdMT1qYDPF6oBHR-30">
          <mxGeometry relative="1" as="geometry" />
        </mxCell>
        <mxCell id="ajUBVkdMT1qYDPF6oBHR-25" value="SubmitCode" style="ellipse;whiteSpace=wrap;html=1;fillColor=#dae8fc;strokeColor=#6c8ebf;" vertex="1" parent="1">
          <mxGeometry x="-1475" y="480" width="110" height="50" as="geometry" />
        </mxCell>
        <mxCell id="ajUBVkdMT1qYDPF6oBHR-26" value="CodeFailure" style="rounded=1;whiteSpace=wrap;html=1;fillColor=#f8cecc;strokeColor=#b85450;" vertex="1" parent="1">
          <mxGeometry x="-1700" y="480" width="180" height="50" as="geometry" />
        </mxCell>
        <mxCell id="ajUBVkdMT1qYDPF6oBHR-27" style="edgeStyle=orthogonalEdgeStyle;rounded=1;sketch=0;orthogonalLoop=1;jettySize=auto;html=1;strokeColor=#000000;strokeWidth=3;" edge="1" parent="1" source="ajUBVkdMT1qYDPF6oBHR-30" target="ajUBVkdMT1qYDPF6oBHR-31">
          <mxGeometry relative="1" as="geometry" />
        </mxCell>
        <mxCell id="ajUBVkdMT1qYDPF6oBHR-28" style="edgeStyle=orthogonalEdgeStyle;rounded=1;sketch=0;orthogonalLoop=1;jettySize=auto;html=1;entryX=0.5;entryY=0;entryDx=0;entryDy=0;strokeColor=#000000;strokeWidth=3;" edge="1" parent="1" source="ajUBVkdMT1qYDPF6oBHR-30" target="ajUBVkdMT1qYDPF6oBHR-32">
          <mxGeometry relative="1" as="geometry" />
        </mxCell>
        <mxCell id="ajUBVkdMT1qYDPF6oBHR-29" style="edgeStyle=orthogonalEdgeStyle;rounded=1;sketch=0;orthogonalLoop=1;jettySize=auto;html=1;entryX=0.5;entryY=1;entryDx=0;entryDy=0;strokeColor=#000000;strokeWidth=3;exitX=0.5;exitY=1;exitDx=0;exitDy=0;" edge="1" parent="1" source="ajUBVkdMT1qYDPF6oBHR-30" target="ajUBVkdMT1qYDPF6oBHR-37">
          <mxGeometry relative="1" as="geometry" />
        </mxCell>
        <mxCell id="ajUBVkdMT1qYDPF6oBHR-30" value="&lt;span data-metadata=&quot;&lt;!--(figmeta)eyJmaWxlS2V5Ijoid0dIeTZWem9zUndhVGhLVzloR2ZFdCIsInBhc3RlSUQiOjE3NjI4NjMwNzYsImRhdGFUeXBlIjoic2NlbmUifQo=(/figmeta)--&gt;&quot;&gt;&lt;/span&gt;&lt;span data-buffer=&quot;&lt;!--(figma)ZmlnLWtpd2kjAAAAvjwAALW9e5xkSVXgH3Ezsx5d/Zr3k6eIiojzYhgQkXzcqszufE3ezKrpUSfJqrzVlXRWZpk3q3qadV1EREREREREVHRZRHQRFRERERERWURExBeyqOiiP3/+/Lmu67quu98TEfeR1T3s/rN8mI4TJ06ciDhx4sSJE5G3Xuk1wigaXAy7Vw5Cpa4/16o1+0G32Okq/tdsVfx+uVpsbvgBWd0L/E4m7xlqv1kBzgW1jWaxDpQPuhfqPkDBAP3AF15LhtZw7gfna+1+x6+3ilJzudnq1tYv9INqq1ev9HvtjU6xIvVXHNivtJqSX43zHX+94wdVUCeCst/0+6Db1f6DPb9zAeRaFtnx23VBnqzU1tdJT5XrNb/Z7Zc6tF4uBtK305m+nWv1OozDl56dCbodv9iwJeTPurwd8XXFR0cRQngIWEkTurizgzBBQVXpt5qmYWUyW51aV8agm9Nh2N4bRCFkZYq6piWIGq1NA+qt0WQ4mlzsHI6FptlqPux3WhSoVsWUCwc7W0+i0AelKq1yr8GoAHW52NwsBkDeRqfVawPk1jvFhtDlS61W3S82+6223yl2a60myMKmX+62OkBLMk7S5XrNsF3x6/VaOxBwtQMR027m9UTH3+jVi51+u1W/sGGYrNFUs+JXEHdKd7LrPyRdOhXUa2VBnA4uNEot0ZEztSaNNQ0WqdbK50VU1wXVYtvvb9W61b6re3251WzC03TwhrLoY6neKp8nd+NWrbJhdOsmeDVkpDc3/EqtCHBLtbZRrfOfFN8awMAO9jYH9hF2p16URm/fKgbVWr9Ly+Tu2Cx2asWS6f+dXQc8zgD9MvIg9/iYxGn2Exie0dcnBnuDg3BrNN/rho/O7RQ9PniwV+z4lCpqO2lqOtloGSXyuvASeaH3ZHNJttLakg7nryXYQrvYKdbrLCB0vNHvuHEuLaLr/rpgl/3mRr9SZAhF0/iK5FkqPcmsSma9ZrieMHCrXvFF1mtdlo//cKsmvTzZ7vgVfx21qPTbnVbZD0TBTiE3vy7lp2MF7Ac118czCarRq3drbYM82yg2e8V6v9Zs96Rv11X9h4pWg64vV/3NjgFvaFPNoW9sMWwLyixLz25u13vS/C3FTqe1FQ/zVpuLZXFb0Gs06Ev/XK9pZhzc7UaJ7gjavl+u9ku9EnMI4s5as+vLmmedtzrFDcE9rjQOJ8MGK026UwyCfrfKTGyIzcEqdhrG0ulKsXPeF9aeG6QoVE6WD6ujhCEhmy+36q0kVzBKaeosBax/A5kFR41KC4Umv2KrxNnVVFlPBK31bt/wILdWLXYqSc5YOL/j21V1yn+ojJzsyE9XzWyfCYrdXrLwz5pWAK6r9xBVK6h1pYnr24PRxGnvStBCt0EqNKpSY1poTboKRicoSY08sDiAgkJTxUKAyyU4iJzS52sNK+YCVu9cDWBpkyUkRm65ts9mFOwMxqGVPrtJx++WjeDXazJOjb6a1rpWb3P+7m6443qcr2EuOuwlRRYQharSabXTrF5vYbyYyWYFO9KTDnqlYvn8Iion67dsbPRSC42qoRygVa+N3STV9daWAehC1/YhQCPq/XKxLZqZT3MsqE7Z2PWCMK2EO9PZYD6aTqgTW29aZn6RK7BmuLXzfqptXj0cyHbQnY32ycV14N2v+m7mdfNwfzuc9SajeQTfTlGGqtq1h/x6AKDpNTuiUHrl6SSaz9IZXmbmwSspN0PSjaJsaB79cGLPBWX2Q4D8OhwrfVuj4DKGeimYz6aXwuJ4dHFChYSZwswzsQC61es60LPE5cEBGhmPh+Ea1dCJvfTsgha5yCByNus/2KvV2TQxdCDzTqfEhNktu4D4UD4MaIJayu4Fy6m1799NfiWTv4f8aiZ/L/kTmfx95Ncy+WeSP5nJ30/+VLnWKWdbP21He246Esk08AI6YFXJ3/RlBDoeuFeaTsfhYNI6CGMFyfeadqUiRqrJ1gWsg14J22xg7yGzgI2+GuFXp7PRi6aT+WBMdWcZM3OLLhspeOd6bLrrNdPDtPZmOJuPWHqCa7UpylQttbrdVgPIa0wPo7B8OIumM+TDtlDE9lGgyp1WwEqrdYC1f8GXpYfqkfNwGU1T7SJDwRaWUXHyeSw9SYGkXKsDLTXEokqVZaYYbxNoJZk/k13dZLFPZ43RbCYdSFaRmXVSbQAsEJaRHa0rKuxVBtGetSdemV0YlEoVXBubY9dDvt3cAKXOtX1JdbApideuiO+Y8x89mM7mx9dQDh8Fk87m5xaKihF4KKZ9HSOSJevVB1emh/ON2WhomeTtsspIPO2gZ1dZLq3THszn4WxCEVS1tlkh2Ghjq7WZz8P5tBNGoxfBOhGR6Y6RTNIPnUCeVOvODic7Tv28Si0QN0d4KlxedlMAHcyvjMMgdGNn6jpBy9nHLs4xiS6jXVZX8NNxNZpl2VhyXb/RZoM1Pno+ZoMw52Eiyav2G0Ad7xYYjsHOJTuNyZiqGOiHka7pgWajxJk0sKU2ek1zV0nXitQroWRiYoBzpkJ5ekiHZq7e0mPVQ+xucnLFXld2rnyGVcGwOncYzUe7V8g+Jpd2sez3MQX2qJCz+ZLf3bKOAVKCT2Bn0RhckJwVgtrDfr/bwsoYAS0gUDomudZo43STkxJorDTa02gkk8t+Asp1XBVLiL1njyeGbGsmtpm9hmNLsQ1audQWZ0Xkpg/qmNvxMWhIJixZmrWTvBJPHabA+l1yzCSvex0zcSU2ZNJcud4yHmseP7sfO93kC702/qzfN85+v9NrdmvmeLPEKqvUxLsxCrBco2uzQablszj+LH/DXRXXab0vVdmayOtGi+MtrimwZ2FbkKNWVVww4LwtwJkQsoLNGc99CSq8ZOMYc6I1I1yp4E6SrlJ23r8QVztBdrNlj0RrwHYcVTOXJ5M8K478KdtErDinbZZD3KbUPtOdDSZ2Su0Ib2fD5ZjQ7bNDsPWKLCBTrGSm2FTR65ygST1zaumvd1rJSSGXQcU7RT6Ds3tCIYNJNoWldi+oWpxjtpxiYl4rKcqyWk0RCacTcg62OMdpLcXEnE6mKMsJMcWIhNNp21EmEaKY2ZkFZMzv7ALWsrxuAZdwvd605LCO6Q1ZXMzzxizSsrwpi0o43ox5q5X7UkbuFnxHwhDFJlbPLMlbOSa08CZTzG3+IGIF2xk/TeSi3CvVyhQoYR1nNC59JuuJabIeOTVkiSVFeaFbwBRs3QXckrXqSX45aHfslrCygXqy5SaIVUeaIE5YyCwQ1rJdHWuLyO6WmI+Tx5BVjkigTwU7s+l4XBnNrCWh026NfYENAAkbA23rYobmYg3CIUZsHlLuP9RmL7Q2tQwHcapMTm/02IW0FxHNoTHgZaXHUzwjA3rl6RjXQ+dnalXpi/zjbfNPbsA/eeudUPlRcvoK/3gdUFCniMv8k9vjn7zhFMynB1TYEVi9QOkDZ6Uh8BqD+Wz0qNJL+3fdRV7v33U3ibd/1z0kuf27BZnfv1uQhf27BbnUHsywyLXJMKSed/FwNFSPZJiuKc8eFyg8GowPQ+roQ3N0uFN560ipOdgPlc7tDvZH4yvQ60j2agAPJvNoZzY6mJPLCe3mYDYaUOVwP5yNdtZHFw9niJbd2R2RFWrHfAJoIgsmIAhsmlmsGhwMdlDqhbqEGnAYxIiZvCaG4U6V12CwLpMrA8xywJASPDAw/hTqbOY3W7s8OIhQ5rQK688cLzVJP854bZ+jnnQ9B6Kf5MRFJ4goYAEUg90AXMrwb8dyz3YLF55/8eTxngBMfwIjZCYnoaqh02apaQ4FxsCvh4O5EfCf6zYnQIpU+Z62IXG98MrtQPA56Q2p6SBpwQURlwjQiCu73OpUmqQrxfWOlK9WmsYYnWj2GtKlNRxuCaSdZL+UIZ2q2PS0eOKkZziwSnq2WDTO/3Vlm17P6UfSGwKbv7GzaeIeN8nCJL052DKB21vKwZaktzI5gr+tXDYRvNsD61XdUa2Z0Oydzn95XKvTlP49XoRC+gT2N5nKJ1a65oz7pPV6Ucbx5MZGR7b3LwrQNdKncJqQ9r94HeeX9KlVm35J1bb7pV2b/7IHbfq0tk2/XE5IpE+vr5ck/xWttkmf0ema9Cvbtv5d7fNNkdPddcwH6T2k0s97O9265O8jlfwzi6XOJun9xdKm5J9FKv1+YNPyefYmHSJ9Tqm+JfPzVaRC91xSofvq4vmqjON55XPm5Pc15XWzEJ5fbpt8sdzrCF2JrV7yZYybpJV1y98neCf9WSe9h3SD9F7SKs1KezVS4X+uasdDaxvSn3q1dU70Bg/W+CfNGo4Eaetc+1kPkLbPtR8QPg+eaz/7LtLOufZd95EG9XMNqdclWCv0PXY1mZdNcW5It0ilHw81zjcEf6FZN27Zw83e+S7p17IBSL++jjQg/fpNBE76SDvoCr5PKvgXdM53JD/otKuSbnd6JZn3nQAHmHTYtf0Iu01zNtllmmT+Lm4SCiPd27Tlo0077hdunjf6cmmz0+2QjknvId0PAiyvUhNSyU9J7yU9IL2P9BtIn0k6I72fNCJ9FumcVOR0SPps0qMgwGYrdZlU+D1KKvyukAq/F5EKv39FKvy+kVT4/WtS4fdNpMLv35AKvxfrILhHGH6zLm+aHr5EAGH5LQIIz5cKIEy/VQDh+jIBhO23CSB8Xy6AMP52AYTzKwBMV79DAOH8SgGE83cKIJxfJYBw/i4BhPOrBRDO3y2AcH6NAML5ewQQzq8FMH3+XgGE8+sEEM7fJ4Bwfr0Awvn7BRDObxBAOP+AAML5jQII5x8UQDj/EMC9wvmHBRDObxJAOP+IAML5RwUQzv9WAOH8ZgGE878TQDi/RQDh/GMCCOe3AtwnnH9cAOH8NgGE808IIJx/UgDh/O8FEM5vF0A4/5QAwvkdAgjnnxZAOP8MwDOF888KIJzfKYBw/jkBhPO7BBDOPy+AcH63AML5FwQQzu8RQDj/ogDC+b0A9wvnXxJAOL9PAOH8ywII5/cLIJx/RQDh/AEBhPOvCiCcPyiAcP41AYTzhwCeJZx/XQDh/GEBhPNvCCCcPyKAcP4PAgjnjwognH9TAOH8MQGE828JIJw/DvCAcP5tAYTzJwQQzr8jgHD+pADC+XcFEM6fEkA4/54Awvn3BRDOfyCAcP5DAGOi/kgA4fxpAYTzHwsgnD8jgHD+jwII588KIJz/RADh/KcCCOc/E0A4f04fjwvhWs3ZrtV9Ssculic+ZWNwcCBOjvZ2Z9N9ccvmU/71SuPpttJ6+8o8jFRO24CU8nLcE+5JfiIeGf7XcDAfGNplldscDcOp8ryYJrq3NxsL0fpozLm3LN5kcfhCYhBKr8ylU/h50d5gOL0cAXp7o4t7nOD38PvwJIfhfDAaA+VDxhKJk4FHecQJPyTSBLw0D/dNaNIWLR+Ntjl77gi8Ym4MbLPuNll5J/7vNrmDxzQbMLZVtbo9E54TWiZ3wnRGeTebCTir9I4IQr1AeVPxMOfigOeORtFoG29LqzyJu+g5rQoRnnikdvUSvCfR7nS2r/bU8sjMxku1WjFQdw/3eSJdB7U6mIDkUFGTIsGctRhcPjxSpm1ZXUc+e6dxvTphMXvTw/GwLP1rDCYg6M/NsymnEyrTzbVIqgCc3DWyNZRuSl+u1akDGem6KcJaq9Ph/vSFozIttAk2I+NlfebIKMnLtLqewPDF0YQTjLS8NRrOGZi6YQFbDUWOoG/ckZZwYNVf59RN4pw2mKsKyqe8wqXwipoovQu2PprElZhdwVRGF0N6l+P0QM66tC9SeclsWcICNwfkYD6y4/RyA+7Ru4OLNKwFbIrU0ON45Zj4tG38hp29gbj54SyCQic501CtIkP2IoFbR+GMMGnYHTC/6jWezo1N7NSE0raZdS53xvQ+YlvRhYvjKwd7EfuJXhomFzQRu4le3ubYd+kbDqeyMN+k9VnLZpMOQEKPV3YZTCKdV2m9ujsYj7eJkq1TEKmJPrGHIs5o7FJp+ihcXqf1Gjmgv/P0yXkScOVUOnOntoI65fDhMJHv6fH0ogTnDUl3Wo7H3trdjcI5lkWt6jP7ozgil9S7bp8c/G3rr9f6+iHHpaNwWDed+HtP31CxiFTOJ+0wnbT0grS8VFos4QVpsZgWpFXYpS9Z4SxdLYtlN1J4LEhgxeEzElj9P5DAieOjXRvawdVN/xntyWqmD8rLbxPNHEZqyCHY2k93Ys7txXQcCApE/hLGLIK0UpR2msgAtiSGc6NoczCGFUZm39Y9z9JZVoWSE6fyVrB79nSIlC+bRclCkrILADkBktHnJVeMdmBFbhkzOZ2F9czlIFZxdzSL5olcpC06lM0vbcjkKW95Z7q/P2AIJbubpOGBbWVXEINmDDKBRgto/2rmg+GRs8dLV9ue5UqiHOxSM2IgyEsjr5i57HpOWzACR+7uqYTVQWYG3RjMmCQn6Wy3bJDFaJXUlEwznF+eQu7Gg3D2kf6LiPbwTzKqq+2CbMvcpiATLRMfqUe0Dq7sb0/Hjn1kMrTLbm3hmEkkDDxCJ7JRBPQ9XEc0bDZMXcwWrTQ7vuehCXA4AIfDyTEfWW2EE9nekJBra5rlrA+jcJ053xCXgnFcmZgAicYNGO3utibjKx2kfjQYG+pcxep5bX//cC6jM7uP5est8iXjrJdXjFg5nXAXmksoJzY1LmQhBOxEtD49PKgh/nhd6EFc5+1aaJBq7bGLjcBqj1lutgE6i3j/NxRBOH9sogCtFAlJY+BCAmCopbe6OxqH5+24IlMIC9wtN8bqAM+JOJawbDMvbq4inH1MmfPFCuMRXsfsikxodxocbkv8axsyQagXY9NYSgfTCcvStrR8ONkdy/Wc3LJkWa6Mol5cFKLiatV2uxzXbwwiFpadstxOjLVc9cHh9ngU7cFMGpbudqfdcLBfT7snjXjHG8nVcEpllbYYtehAMJdhp7omrFq7wWV6ivY4YlFRPKeFLixq0bX5bt7zf8SZhT8YB5kZiatY1vZBB+bR+HA3Sk/wR4wPZ0w9yzk3w/AdisOXT525AknizC1FB7NwMIRiOdqbXkbWuKGlEAkOZe1BvtIVL8+YvdpkV3xp096m0sNDuyyp7LXxyKZSUAmPRjvxNXEcfZbwhLnK1mUCRiaE5hkcAWkJXJJnZUrFTuzYsfZd5XJ5q2+OJPpYI2xLkuGcheI6+8VoGHptyHyMdkcYYDSXWpbnh9lkWsiQfbvtLHlXGKiV5M5RcQcRX1hogZMST3LxtUWOqDnjiCnzLpsQFxwipufGvtkzoZll14ESzs9FrIZshegzJpHe0EoyarnW4w7AXsXJdYh7GKKvYmDHkNQk9FSr9ONnS1eTF1E0tifRMs/bTtCGy8cRZYoqxwrVHHDgMDI0VKrQLG4S+TTBXcWNjHt3pYMtE271JO0TSTYEOXc1Yy4+8z6nGDkEwpnpFNMDRfwKDgIVdDZM2JcQXRu2/fa9/c37QHi2ZsCxh+UdcXaKDnd3ifqz7EfimJuusbJ28LPmshvM1TepXHR0UWyFcZeZfrIcMEWz/5CVQK51OBeXQbw6yjFTzAZbs2wc5JehWJ/Odli38j4F23MpAr3CplPcjqbjw3notl4M1U52UJ/S6oTr8eaGa1J5tfV+0/fdbUqxvlW8EADounEk5ckC5ngu47gf242XrzzscLJyc5PD/YA1zzxECmfLrXPOg5HFBrIK8DMuHmLZZi6HF0O/mMaVAzF4s4l6QK1uYM2Zf3OqoBGdsIq3jlwbuwTBZSwB8jbvbFcUNmbBI7L+AtYJdyMQsCudl4sCq4vywIeEW4VO67xgPPdiNeevr9uXOnlisK2OQAX3NGMJK4TFN/wy+5Rty1rZeAN2m1O8tQkBc8QgZc7pfSQYVyViLuJlT96TabJF7u4Ls4eeIyoQRmVlbhjCQ36lv1X1WYrVWr3Sb633bTHXGFym2kfDjJBlesGVSEWvONtJeoH3ixCLk4tIkdM+9jeT9UZc/c86sanOWZNfx6em7uFsRA/1cBQdjAdXjBqviW9jskZr6X97fMgB1bV2YDJIkmr4PZwOqXDJDrRtyjrheMCxYc9WyB8YpK2wT3yAtQTIOjJTDYiTXgnHIacMlDDfOBzPR9J6OFsfhePhpp0KJmiHpYDsUQadvRTkJpABis/XGEjYIqMf7jmEWFoSz5nTnLWeQPnYgBYS07qUcPMnwwPxoxlz6EDZs2gTz+cgnult7gFts3/PCkoqA7Ckx22pRdcz5HbhUQ0SSytiDoCknMvGWqXCPS6X01g4o7jE/WOUfY8Qv+awVRsj2zmaiUAKl3/CzqZLLqFmzrE0qCzN+PVSa8saClZP0clBO0+mMT0K3XY8HQ/Pm9nFbUb11xO19jK01RFRm9mVGsEiqkTTQ2yaEdZQhGXz5WOeDLtsOJ5yvBN9YfLp3SXUZWKr0d5u2tSYMqecciC71DOnxPzWaHgxZNUxevTC48Bh6tKkPxxxIJQB5OcjtG4+2D+oRdMH7ic8D2sM7AxC4cyghDgcFiXqktvBX4kzeSlAyMbo5Cq+/LoCIamtKhePpVaxI+LT5omCWZLYhkuOuFhvV+UqQ14DsJJ9IG1e+Lr39l7AjDBVAb4Dy5I90KlsqYcRINULBHYoOjIZ9SpPmR8gcA6csJi8v4ytqjk92SjOMw/2BlGolpRnAIu8/wA7Fl9Lv1DlMllL8Ky5dP+EMp6PRT0wsXIvSGpRzx5FbesJy6GARft2jdeIS34gPYb2fd441Q3T9xd7/D+DdAqjXuLp73fW45etBWZ9Lau7HWjbC0dRMN2dOyMRSBGNvkMTpppOegdDJsx15KfBrY/G45jmB8nbvTXG/AhCBOoyPqLI3D+YbGWh+78c23/gn9CM8hrG/y80Vw2ZonQn+Zzm7uHYbvB+b/pC3NzgEHVnYmehMSXGvgmnP2DlHjWm08l4RDxvfCVu4dPY7j2OlBJgtGNCOo8Q5XHozNBMwY/GBWIXUvSPxWjnMSQFb00KjLOfFvx4XCBOQ4p+W4zO9Af/xXaD8l/QkUEOQQoJ9yrqo25aBWcJ45LfzJRIhwX3sQzOdkqwv5XBSo8E9/GMc9keYAEi7sb0r+hr9rCUkNLLDxilQGk2wBygE39Ct+MsDhZzNL+yKVtbazZEEdRfe/pv4rk2m2c62e/R6kVwM9jFNfGvgJIK2SPoN2YLNuFvVeSbLDqxkhlde68miBYZ+kVFfbU+jM+ZcM828mZiw9jc3mMUfy4+yiImWdyfivNmmn9P/DDbi/Nmaf4+Eivfw6D+IKYLk315DVfXRrDLi5X+OeUiQq2EuxHTq1/BPp5BI8pIfdjT3+G5AcqA36LVN6RZawRkKiS2EiR4Oab+a2yJHFo5kdkCM4DvWmy6iLNwcSLxvwh11K/kGMcVQ3EWlg63mSxxO346Of0GcoTmkk7/o15Acap+v9b/ZEyscV7frNU0ztguHsQV6rK1qYL6FROPd47yTTFsiWsY38HF2eBgT+wv2/equvkYyhKeS7Dx85xVdctxnCU9P2cZFbndyb5B/1L1xGugbYVuUrKJ0kvoTz1NPekqpCXuCb7MZqJuVk+OYVu0KdlMrPFW9UWLGEu2xd4dB1PpWJqzxV8nEmqyzXC38WUxbIu+3rAzk67V0+KMLXvEaUbXYbnbVv/JSN7ErSYcB/f3p5O6nDEPOcAz3f9moRTv4dH54QCfOKV4MQsoIamMWHWhjIPtK0v1zVkqu6eJvLIkL8mSYFDkpgf0t2TRAV4IS+rhcDal6KXZouahfVhlH3UdqG+9RqHTATXjkunqUmKQxpNQc/Vt2eKyPLo64hIrg0u2rEfVt2t2WyxQzHzMzbyhTNb9R6AYMB4b+b5dfYBr0Al24GIb7x95GkZa/XaMriMf8r+Dw/xonamXQ+Z/ZOczvWONOdfms4so4z682lN/5sks9XDc6uY4G/djmbvt+fQiZ51ha9LqruO+IalIfaP+zQRPpDZb8DGdXCuoV+W4ZxbTILxek1OfTBVHUBE2Vr/UNF0aDUdpo99ncF17PyKo56rXM9CoOhh2uvUuZQz1zZnT9ZIDrc4+h+jbJWN5li1k0V+V3o+uONAWPJeaSVRtNcnYwq+OsCocKdYktaivIUSRXJ5yweUytvD5Q9QNs8XsTriuOZXJWoLiPp4sfTsrqUVVBKxFLRvPoOz6BYQlWhecca1e6alfymzQLTsWhnXDVUhbdQNLkT2mcv2Z5i1JNTLug7vDXFW3Z/OWpGlRxnipJ6rHZbKW4EGLQffVk9Xjk4wt7Ni8+ZnQU9QT0pwtDnbxKVJX46lp1pY/bCtYlFB8SRZhab42NE5NhBOiv9zBtqSfCqbsIir3HENZwl1pdyOc7odzHOjPan1vFmFpLtqWY6RQ3beIsnR7ciXE6kQtpwf1cBdjmEodEX+3zhJ0RNDHKF6TUpSm8/l0/xpcvuc4zbUYvTYlSktGshEeoOwsUHTue4/TdKfs+JSmJK/Tsrnj5bImI0w7o0b8ZqV9nxz7itvH4mov8ban4lswvqrxI8D9sMPZ3iboNzm0DDFB/ohDmjEl2B91WCYXBx1FlyXzFoekKau0DPvHHM42laDf6tDSVIL8cYc0TSXYtzlsYObXorGaWaH8hLfHxmQ3/kQmc/V4dee18FY12pH8zESMjCopLLfL2MIXmryMC7tOHy5l85ZkbFDtwVB2CEj2s3lLQoOgyswEpscsUrWuHjXIc4f2ZztVdcXkbWmFCLLJVpNuO4Y08Nu2CBNtfJa04BO2gGABXts59Ts2ax0P8p+0+TabGLt7MHqR1Dqn/nwBbdqvEd6I6NJf2KJsx21RRf0nV7Q3Gg9d1Y3ZVN6af96WuG6ZKQT7lwtYqwSg/8qiDRvDPwjHuwjnry0+3qapourqOzkdgezgdM6i8GGZ+keZ9O+yaPM7oqb6VZtzfXYzRUsf9PZHEwYdqn/MqV+TrTnOfGihhukFOsJZYq7a6ve44wom6PbGYJ+1NJjJAvt9DwVylzlyvjW++HfIgrT3KoEEKpOCV6YFJdq5mNo5TN936pSV8QA+qNX3Z3BdanFJ9IYMqpLeF/2ADgfJrzMeUm/MULVxAcLZURiYmCyd/jnOCiY+RqGh76h3ZVDyc6g19fNpXwlbyeXQR7R6t2axxHcrXYpUV/1ipqkugafpoczye7OUjQEZ/jM26Zc0mbgkM4L3SUSFoK7Js8syteOBXBm8P9NAYN4uBSjZvGjeO4mR+a20q7WUdaT+xdN/mhaZqUBCJnamXp5T/03bOK1xoP9G64+6vATn8HFsMPdvtf6jWDZymoeH+get/i7F+ZywwfznFFNnpOYgrv5FEyNN8KY2Wy/78H9JsdS3uH9IcWW0jskyXY3UP2r9P9IycbSSAOg/a/U/NcfoY99/OKn+f4vtMfNu2a+q/4qEzbHhGpf1P6np7GMWb7LMECnDVp/wJqjzsScEb9MIagc8txg7l+psV4cS8/4LT32LN8bnRAWPRuFlQ/v6nHqdZzrnXEkcVK3eELvAZYbOgouSfeUH8CiH4bSNMmyzaNRrPfWTsk73Dwy71+XUv/cum6ioPFXgtIwPHao3euq7M+iy/d3wMgdoi6zYoXKxPp+F8c+K3+Cp73Hl5cEOx5MiDCNkrl7m0a4tqU0ODufJzcanPfWDrkB2ZuL4rJ0fcpjq9AjDYzTh9Z76txiQLYMPMNeXRMAM798hC9Fpxuu6wVWZJTPVIfm8Y9cI54OhjPkzHh2yOP9IhKX+0NPf5jBtnAE2hCuNcHJobfTnPP3tnpnQzvRybEgj9XZPvdOiMUGH+5OFkp+zJVSw6hOpn/HUuyzSkm/J5mLQP0/MjmXHKc+fHO6vi4py7Pm8p/67XeoUVOh2XPBXnvpmIiLYWObjhAHs5vi8gfn18ASlY9Sn05wtLsn0W5vpT6QfYk3OXIW0xOXQBP5ibWrZ28frrsZacj9ibdZYYTPzoIbFcusixpLV90eMpz4igeQ2EpezxY25LEDszyXsDAR3ZPOWpLWNliz83v6p6inHcZb0IWYfRcn6KfgvX3w11pJf4Mw5JGBrfqBOe+oZ6unHUJbwBVYIAWddcBGhLv0ViyhLxzIiKGImIZIN8jnqGYsYS7bNwsTmS5AyUp/W+iszeUuxY59KiQ4Qr1V3pVlbPtwVO9PgIEXUwcwhUxVdhbTELFfT9nSdOdBKzrdx1hIc2bGUkLrVi7g+1JcleoW9+YzWr9BIzuimaAFlr9KR2SDTH/s9rH4YoyZOd7A/nc73EA2T+iZHxxE74rZpW71F2xa7IpyIy2kBYPhTjpCJYp52TBwfmaqvI5a7k+LoPUx+lrufR4mFivszCyeVkRg9eWzxTsclsTif14RgB+4q9K+0+tXYbNtooKDrZgY2ndEu4ElMqEuAhqzZHz6p1a+ZWN/42MONj2r1obhA9sE5jGMCevnrcVkq3ZpIkZEIwce0+vDVFMX0ecQntPoNQ4BymIuuR9TvGlkM2DJn3BWIHN11hrj2RfZGMwGyRXzaeoJleNIkcpP5OKf+OGUgtw3C4TEYfEZfCq8Qubl4Ecm+MscR8WiKY+OLCW3vzQjtIe8/09JTMfrEB/ZK4e50hgNEYEgG+Ij+f1xUus6uRphc6/9Xz5luCfSI5NXfeOr/Y0Lo6F6LmDXrlI6ykU6xi0S9gOnIt7IpRvPUI325F+5vh0PD4LU5IkLEsPYa4XBkX7B+Okc0CKVgnmWW6Z7TpDd66nu9aLR/MObgEL90ag8m4ViG+0ZvsMNITAim2m3UZXn8Uw7jLpGeDhZH/XNO/VSGqD7YJoa7pt7hHQkJGNP8X+cw8jGmjNU53Gdk4tUdcD5UP5uUyWGpdCVgo6LkLZ56b1IiOAoj9Tc5/e4sFrf43Vr9QoLqhJxV0WWjjJ/NqfckJdIVc0MRqb/NqV9M8F1medLEVNDxzyTYYGd6AOXf5/SfsNUQz76CijzKwRGfRIzidHc3QISHkXT1dXn1lx7+ymQ4iHVd0O/y1K87dLzzCvq9HsH7/RGhaCG0XNS/5NRvsL1n7uyYgI94TCH+Ar78yz31H+gInj7b867cQLw0r37Xs4rCdBqdqg1Z7epT3o4YgY4NNKbW6OV5dvmZxdoDz5r6I2843SHmSWgzy/tlefXH8CYijxSyl82Reik+sReNWX5F2B6F3b1wP6yPts+zGNfwFER+xfl8NtomYkAoMK/+3NuEOvW/vNyAHeCALEPU+wxxUJ/KL4mVh9toBp5rCFYaoN9qVV4dcb+r2sVeIDe+utvakG+lCL4fI72G/RRErtd0UN6RSbafYAvmK37rrc6WvYxeMvlSsXzeIZYNwryCWMFHwSMyfpR1w7wlBMRBecTuz3FMY1LETKSI7M81BjNzcWcLUVZGlgcXZKpYbGEUtWw1m1+y7VacXV7wMT0cXZYbRxy59cV2GWsG6GWegYieeZppnY2YhB/ytF4s9Cm5AqtLZtbSRymbMn2of8XpasrjR+FxrNSnCCY58eftvSz9OcrQyMpPVpSleLOncpsLGHVnoxYENfMDZFVudeQzWJ1ipdYLyGv5NNxGRz6IKN/nsFReiqw1K755pJYLzHum/lb8WZh80GVKM7UKFtEuVuSLMPE7Qfl2YAZrX70sLyLjFy8ri+jkSczqZi2oleqiXCfkMZX5ah2ZtS1u4+VHwSeTj9WcSj6HJ02ZTvSPj/n0Io1p/SqiMymR7ce1eZ29iuza7K4rtToVENJgIsLrHdLVTPA3OLxpMcHe6LC2gQR9k/kASrPblx/F+51uzbz7uNmKstzqyRuizCzd0qg1+7Hcbm0UH0oyt0lJIsjbpSjJ3RGrlGwSyQ6SKu9bM8qbJfEpR4MTHQXLqmJDSdRYqEE9orwykN0FqJjh/ZPwXijzKRCmLLY5m/+++oec8HMrrCtcORVhbzkDZbeLlOU7YPmYdD5Ewn40pFfpo6qrWIurAHmG7TuvYutofAhSlhFIrJdXNDtX2zUAWYbVu2F1VblPYcrmwBVIzyxpjcOk2Zfl6Y55Oavib2I6ZtltMm3sfUljmXKfwrQxQar3e3FLMR3mejIwO7ueS8PvgYJTGaa1yYyZec3NCTlxTmOP/YCn8kfTOTEgMh/0VGH/MBrtmNyHPLVkWXcTck/PBa6Hk4sESTF9lmAz5uDhHc7xd7DPaWkjYYkdn7IRV6RzEZ2ad+HWiCBF1TI38dz2K68wob/WXsJqGO5SD5180XR/exSuu19uNe1QczvZ6s2k4kcYXvbZYKF8bTqVT+2ZytozLe+KO7UKJrcfmC+i9ukGs1lrVv1OrduXt6X9QL6VYQtyCy2kTwoYezwEtzA+zsQsEFdk1Ct2cid2XAQJUKjBeDOukWM7TK9f11SeG/60ek3qFsy0f4LZy458+WAmr1Fwhg2viBtMtbLQvMGztcnB2sLYBPHTbeY12r7KtTmUaKFyV9qUF+jmiwNGhCQ6fv+NuLB+zbLfl0fZIBZrt4/1DT1hGUwuuuya1iPnqMsvFBz2U572ahn0IhN4zKVPv+8pOcEgqi9A3BVKZqPVaLeadnNV9BcXSj42Kf3V1jvx5djDvmo/7eS+EaXM43hSLcPu+xXUwr7A9IpdbH7Vr6AhkMg3sYK+/SazFLOB99gRpKVeFu8eLC4GzVTOfdhLdTu9ZrnY9QG1+Zapezno2WqpIVh4hGvhTU51aI5BudhX06pabsvkZDoIliSRMCua5WK5a38hoQJfXJGumdZ0fivsdE4cOYPsB36dfdiUOqcUqEBXRVLO2cs2xtUFTvt0JidAVNvDqTQAXZ+jkThygG6I2XrSSeWtHjiUG022zggKM4zPsn5GO4Zn3nKP1J96uhCZpkNumgVHKSuna98EsAaWuf3cBbmCyWET4cZpus9WwpRotSq74GL8Vp3tXmj7QblTMx/1UOW2TJp237rwyoH4Arlzxc1iQpOXkyZp4VxgZLxkHL0HBbXcvtCtGuTKhnjnq4FBnwi2asaXWzvfkoejQCc7vUAwp0pF89WW05wU5KttZiGeqYnDTNzGzwQbMW72DWlcWEFr4kIsPYmxjkWiIfI1ucd8+sZkHTgkcrLmTVat18V61Dm1C2Pl5ceAaB7ctg/HGCYzKX+LGRxxNMOTEOnHb6Lk/W7YPOSIPyOXL6UVVN44XWalqF4zzejEM2av7dftx1Vytg8T65x7q2NAw+YfMAzXaJcdSl4hJ0fIwZgTivpHT60OF1H/hDItokSMWId/Zs8ZTi9POOziIckJCrNcUAUUL0IA4WTnSopdEpkg29m8ZUNjBbUsb1Nnkel0a7dOOYq2UrHnosXR6MUOSJ+0lJoBqoLRAGSgnIximehEajHGM07Jg72WsSq5ql+kGCgfXEsaKv6OoqqbD6/ojvl+kXeczLPFyhbrxWInLcxyw37+EBLlP5TA6e+shDKOlnmFkexxmtmi8os5a9mCSL0spxd/IRAxsXh68mP9fYid5UPAhYSzb7h4y6O0hS5oLuhQjQS1cBOHriYFmYu4HHtMN42S4VNdFSQrELxEA6SCuD0EG6m3tC+n/ipxWFDkl5O+bTpvvGt8N+aagb+LHbk8nRAggclgXDS9kO1y4CCEwOnYEZijaMKvaEiUd3vaDfF/WI+IM8V1IeXG1Esx2VEu3JfmUxrpvR1QZpSBuaM5du8ov22SOznKDZuO/DIoxthb1BUJPXBqNzEYlD5xd7bV6tUx2RNpg2zqXN1lLm3XbH/XuTKTcrWqT7J+ZgNL4Fbctjo1NzKOJW5EcnoRtyk2Tf1pTp0xE+aE+TpPnYWda75D63Mb94l7zO0JdnHSm41rk2Z4mZMIqOsXWauX5NQNiyizupm9G01jwaXRQXcqIka+NyWo0pXivnG0V9XNiNDOOeHVnL4lyaY68tKcvvVYV60UMn297RhBLVb1ozBx1yRIenuiVAH9ltuPtrlYJSzidl/Clpn3x+nvWnAz3CqpcLm5E2KkzvsX4t9IYM3PN3EiOCM3CW3U68YG6YdKrYf6+GXAXju4jyTH9tctV+V8TS5/Pl17Jrwjm3KkChq1NljX1itYDlU6bV/0ed6h+XWIeanLhHsNRkcfrcWjqezXklvtC/1KT2xT7HdZYrEdUlnv23w4lMvj2hC+XoIqXUmQuV1CjeeNO5qPbEOvznHoikktYQ1ZnhHT4LAxA4tf9tkUbdzbO+XGEM12egby5qM5KkVL8/jTJ7Ygf1muHtGVwp65mwRaCoVRF4lQvpzQ1/axmNVBJD9pW9llvaFNWZy4WkdouVy0nOCK7OIINZN9ifwags9M/EnTwqa1vEYAp9AYdwnt5Q7NqMDKqREtClyQT1CcACBMxw4qV2feWOPJrbi3cmjGpuNBixsSdy232JX8NcdXuMb4lhYpt5zcjgsoluLKJt2RCxQcnJ3B5GgQyR1F6B6OsWUccEc1dt1m8XgmXwlloZmIqa20YbUw35AvdrPN7djI59OVtuWGaX26MzDj2VZeBh2w6bFK7Qcvhsc5Wk5V8zSgg0Gk+jIH4THX6UpLLIHT9YFZv3ANjtkE83ABLu5CLTGZXpeJZ2nhNB+xoCSubX5LDuTa1XvTeXQwnbusF3HqcnBsA5LKdjYLU5tzVF+IAfNsDVAtNlHTiSvLu2olDPYBh8h5jQislk0fkwb1MBC/gOW/zbYc7BBkltMQzbnWI/XmHJ5rYgkTrwWTkEbQVccnMGCC8LorbyLxHtvU3iYmUeayhIOAtzxl9zONvYVo2CS8nGS8q/pYkT7mgOLRgGEso6hqKWuTZnj52BAY1DDp3FtznFriA+5cNhG5ihOuy7UUTWzGda4QSc60oo83G3cvWOBD76KYTwadNz8cUz+DGRMjUDbaxuKOFpXSqbGbJPMquolqubzx0oO4BqKLYpja2PIhbs0XrC/5IK7TMUPcZs2DFaqWeRw0IJhC9GnX1SmYYZTD8ZjYYE0wSwmG853BLC/OadsMVeXkA4s1dgKjCUWCwBbkONxo1Lo24y1Wxeiby3kkc2C4IDB5Z3WROZV3rRhu9/tDMrlAJoeIn/wSB7sSmY7FEtfjQTSPlc5yV29Dqa5GB7Dhou2dOQSUYZ9H7VnMCf/c9qIexkuhxvFIPo/jRYY+Wfy5eGj2R3VM19VNS4+u0dEg6ZFj6jpBeBX/faGTxiYRa0xtHldGMbd1kaVlyTpYolIir0i9K6eXKSMSYn9GTCgIRcC0I3DMMBa2a/PeprjpacBEfGdxRcNhmcM+GkCVKvfw8+1wMGdKWf++RIRMcEeVCOcnOd1jm6JR6ZB3Z0TL9BlxYlwTpvTUcx4SAUuJILyAJS67iXV8C7JFmK3kDazmffrJdXVOpYuBu/SV6TYNHTFOtaxXhyHbV9i0PE9gCzAPxrJzAZbTa1bEsTWP1Jty8hWrRdvLNVdOn6KpGb1dU6fNnMU0VWsIWAlnFvDta9hfqj8i7rAjidlXRLKY1OsOyKVKE6n35PT1O5lZei9u8NHCfLwPD5hlvzUjgoPsbpJv0q3jjAbMNkqk1c0ZkxSbNm4n8IDnTLAzRW/PqVslGyRSfEdO3ZZMStEcvQIm6vZd7oWj1qQLsaur1R17yfy/P6fuDJAwYZDBwd6Dh6EJxkfOBRY7gwBwfQ9YpiwaQbguJSPy9PaYCTRhFbecUBDbGHuz7R5HPaMT1reR3rng+8ooag+YKVEkPQffCfetUbMxdKYETwy8yebmQDKpyypPQyVxOgvs/hJ/XybwwHx2UBjkOQzAdqFmLPsHpvJyBKonH6rBCWykAXyWYNoFKsjMQUTjUgEI1f7CnNnTgvn0ANcOFsmuPGtO9/Ej7fi9heUzisoyxcR/pAYHWlfDdmiRdpJy+RgmhqUAaWk2HQx36BRXIwvUO4ty/zA15vR1pj6CwTyI21Ef5zx/ECt8O4u2tyXqo6zWBoyRhfKeIFRiELJNeei9AczFsdMK9RpP55GlMxuR+kBOF4x+qJdovSRQaRCxxKwVfrxcJQzGbrEvD3Z2aEDl1Uok0aQgCeSuxvmudOR56kScL7MH0nWDfr5aM7/Tp1MFddKATh85DpvsenJSOW0bbg+ujBEkiDPRwiqQ+6oP5vTZzNAShf9QTl23C6dNewZgGNcb7jXUiGWDlb3SOpxHo2HoT3bGGCpO62LamekbDGEboWKIH1E3ogdEGDADY3aEcW8ynAZzxKo+mdM3G1QnzKBu2Y5nPVKf4Ow7C3fsig/CbzgM0ScXW1xWt5l2SjOUbC8wZ7J1OmyHfrsp8zlMExYVub3CU3ccTAnZXZnsFI3aEOhUdyY/d+XCJzQeq3yc7HG4Z/Mr8o6pZq9x6nSJETyhMtrdLe8dyil0LSM1LLq2zsFS8nGNJsUoChuG8X+MKPIWdvNdsLlaZGwxE0ULSzvCPSqaXw4h0+4e0hMUTSxvExQR8aML1RHWe7azd4Um9MrB1bjVaxHH4ztxcG38mowvVheuIxlCPEJYWhMoKs4YnRy4zWH7l2xJ2hOy/LZAbdNCc5FD4eBa2KVO/ADMzJTy3F9hqPRJzB+lUfFfLtMJaUWU1OOsDly15z89iwsNnz/EKmTjMgapVuSmyy82YabW661il1QHXfl7CEBesV4zf9fR3oUAyPdlOn7g/sZboWFucpayN4rLcSOd0D7nShtb+sKNJW1YroUs16WYa3FiA/bsIo9xwbemvF1mzOVwQgnTDnCmcPGNs2LxL1CF8NGDGaYH3beov8D87btrOfVX4q+4l1kW806i135SJYnFqevkTUlyq+T+UJbNyl/Jkb+BYv+SjA3pm5su91f7KjWZSaC8/2CvWBdJF5otbt0kR2aJezb5M4BGZMtJps+1VEyystGRP+jZMQXkV7P5LOEJ+/H6NSPik7RCcsoKv7YuvTlNrab9S0ln6G+/wT1/v95qnTcXh2fToaNnYZJJ5PA5/OQUXZxdPJS4j4njJXrXiKVrwlvMlL1jgSbVTWjwHAw+Up8nDhwXiB7h45sSiWDqIQijWJ+hOu0uattn2fviqgG3iSwyao/E7uiJtTjs9QuX0Am9MNmUdohJJ08Z/u5YXyyBT6m4T/vwR1NhfpShWRiZeZcoEyE37YTifJlvc8VsAoX2yoez1+LzHs88oknfy+Q2zOrICxe5tBeagvlwksmSWwrMnzR1uWXTgMusMOEt8+koc+OH9Z8PHm0Tnt6Vxy7cnfrytTCFqnTsX+HUo5Y04NkrRS7wscP4k26C2GS13PnJ61JVjy9Tih0uievSiJa/H2eXgtcsbpLkiu7Da/mqfA67UL2Hf5eq9/LvcvU+/l2pyiewV6v38++JqhxLZLRryU3OyfUWlzsCnWLdsb4CwNNCc6Yq2LOYJ5LrFi6Crje3+Tf05N8bG36zR3pTXf4mwM0Vwd1S6fLvrRUZ8W3rtY2e4XE7ULnYdgO4o2Evoe5k0ZI8Tl5VPN5v8O8TRKjGhD0xaDAtAE+SXj2ZCyDh80UP8s9TKutS+4uLpZJ086nuHvVLOtLyl3ZkAF/m3mo8Tf5AFOmXy5+eJX06q5HkKwL7B2efcd7+NQhMDcldgRHQ3TKYewRxrwzuPvenD55ZMn/54P5SRWbmWUHb2IgHTBeevWWS57Rr5a4d8FcFrV7HfK/nubWGjOerOSjKCJ9XL5bMnw78mvivqD6/1Ot2jVyK9oIcqCT9dxdxqHc3nrwKsJWhL7pYxEABr7d6Xctrg/A3VsvMZLUBjXRL/lJgvWK/c3iu7m/YhwjnxY525PmyekGsbk0bUr+v2LZxbdvU40tF+aucQGWiGe26z7TTtMi84lZbrbkuDHw3yHU3wRtoqnyOz/KpclK2UC3wix3zh0LOZd8OnErV/QnsYL1GM9HVLyL0bkIspv5TKjV50dcyfXhqJf1I35fEgnq61MQeA36FnYBnOHHeJSnaJP28G2dAenEPNlxafSYan/3247M65s+OPkASM342sPA2vXpOV95vADyvy3ZcMrpVTKZTl6t++Tw3FcCefEKu7BuNznE7LxqVp9M915NCDGfqLMU4MWAi3uVk9lfiebZtrsYUJ4Jyh0sSi10z35cS6HTQrjWTfp2h1yTXkaDERhmvF22yrd7Q7fi+tAp8I/Ndaln8TTIC0ptFfhZ1i3SQ9FZJbZu3mZ7EwrqdJoQc8A5hS3qnpI7V40Rq7OCApSI3O0J3vt6S2ao3ip0He6ZGwz6GAULPGmY8LUNdqRUtcTuBHrSKZbt30l4JAZ1dMGFPTC3Rk9yUPLnCynO4L/Yb7Sq2VVr80nXfRO6+DPtlF/bTWD5+x/xRni+vNQO6YWt9Zbza7hV9Nq81yNwfxPbsq7AxTI593fFcLA2h4jj71dQUcX+NjI/0+bF32hFNQ4vN3zoN4sw9ZLpx5l4yvThzH5nNOPNMMkZVJXM/mYckY/p4IbH8D8seYqfua9Md5utk/bqlTfbrZRqTP6D9CLuo/cPd/cax5/ueHkbDsvwGy3wdyXxqzAQ2rCcSssHL9v+SvF4o8sGz8Zsv+cq2vyt4jmEmfNmYcgYYETY4fkjLlcUFbbu3+txT2O9zqvT7nGR0hQCOeE+LxDnMYNH8WctrfNaTnFe+5m8HVM5ZSGUe/XbTPxenDSAYKQHhFTGvyS8AUle7sOBqZ9604TQdc7ZHEwcXiNYYwuJsNnCM1nRhoQVxkYyzJp94TY4GqB+zD6DjQ4JXM1OasyXxY4/8Vbzww+bC7pV5ccOkxVfkjw3K/OgjndXXMKtXlfsUMrXeIEYyTMfvVfCrHvsNSUwea8Jetly92ru6RqYDr6UD/wsuFAAAhZl5eJRVssbP93XShCVhMZg4QlgEN7CDSBShuwMMHRecEb1uozRuLDozAmIH1BFEIelot4qoM4KiTILo4yjuKN1J3EBmgEESwAE1ggxgBxGXUS7C1bm/93wB+o/73PF54qmuqlP1Vp06daobx3GNz3T669MLH87PT5hpP8Yds6Rg5nnn33H2FXdOve3SmddfdtOYK8+96bxJkZg5zhQap7s50elpcnIcY1yT4+SOnnpj5S0Tp8SM38m72xjT3nTSwn926WIaXGMcY/2YPibHzR17/eSJvc/8//SPE9nZmamNrt3YVxsvmBKbOH3K9b/vffGU39/R+5fXT5lx/W3Gb/6zmQcdAMx17rEgHEDk51428faY6T7PmBG9YZyK5hxzmnVgfjVxws2Vtxj74Yy2D6c7Y6dPnXHzhIm/nDphYu8/xKbGpg3rXXnW4IG9b4tN9MhZJqfGmGFVxuzIdZ15c74fPq84OsGtmXZPN9/viqOxHJztaMf/BuUaf4lx4vveKKhKBmrdqqVjr/bB35GlUeLva/x9if6IHZ+RdARbZzdHzjOO41b1/bvJljj+WeNj95Fotypn/jnZEtc/uzg6xDg+t2rXnQ9nS3z+2cqtk+NWffBYJluS479rRtNPxsl1qy+L+bMlubI2wjh+t3rV6rOzJX7/7EGpgcZp51YP+e8bsyXt/LOXJm4XtupleYuzJXmyBjb8HH/numxJe0k8P9XrDmdLOrT5yXPjd80uzJZ09M9qjnQ2Tns3PuSskmxJJ/+sVOZe43Rw4/umDsyW5PtnDUrdJWzxpUOGZUsKhABs7Bl3yyXZks5tezq68eOnXJst6aKMBo3TyY1vCM7MlnT1z4o19bGoq1+6J1vSrQ11vhsPT0hkS44TgkHGKXDjBy6qzZYU+mfPaLrAOJ3d+PKz0tmS7kIwzDhd3PhNHzdnS473z1qaONki6N2uJVtS1Iagqxvfmt6TLSkWgm42B/MvOpwtOaEtB363ZmlNTrbkF23n09GtMVs6Z0tOFLagslMzrv7EbEmPo9mpeeuH3tmSnm3YyE7bjTkiKRE2LztLn+qfLel1LDvjqsLZkt5CQHa6ufHCgVdkS/p4FdLecezNP9IGjHt3rKnMV7h57s41B30DJw3deN7xsw9/ucTX2X9BjsnNtDOd6C5qLDmmnckzJt8puJvm2LmvmVs9JjGvesBZ8853vqiqfuLCqkn7p1Sd//CH1YWHCqurO/66+sBdd1VP2vBC9dZ/b6s+/+av4uO+zYkXrugWX7//tHj11+fEw40Xxw8Mujq+fPeN8Ukb7oyXvPFIfOs1f4nPr3kjfn7o7bjZsCn+1oLP49MGHKwp/KldzbSz83GamDKv+g+zq5Zu7WnuduY4tD1zr2PmOmaeY6ocU+0YmnyNY+5zzDPOnCcWnuCudc4065ycvztmg2O2o+iaP7mO3yEeGiO9tWMNSVNn85osD8Vh22cxNC/fa7aF5hfi9HRLTC9zsqOUeL3YN3vRwoU8FI45xfQwBebEO16ZflN/E3Cr0PAf97RrnNbauhCaxhWRDAwrh3gxLMJXUbTNEq21P4SbI4PFaF9eHD29PBnoArNHua85UlROusu1VjYdDlvG+Ni2cEVRFwSNYZ6P9uWlqVr2/xAuTS0I+0pTW8OcdTgae9GubnG03zGiLvGqiOcs4atset8S6czmsDH1srYn3Fq7mg/7QfaRGAcwuwfGgbAFICIay8P5fjS7lMPYg6QYEJsR9Cz3tda+D7y+BPCsXd1kYNQxgkx4qWA15p+OcZKBBfYD4gWh1tqO0huM7TYindkbJplDLUH854HHkIxbANiu3FccvR9GfnkqU2tX8DxniXRmObFZxopwcTQfxClg5JdjLMXePUrVCjhfIF0OI6PgloXHx1pxvtiu1rqIusQMMvy5tlwFsY2/8wC0Viksw109KShD6/mwK4JovHBYjXmRdzkZWISbIfXoT7REc2QAe1YHfeNjn4fSmemh0tQS1kMhQIygTsIYGRGSf8uobHoDN0tgcCjelgOAGEDKc8qt0Wgsn7pZZFdfNPauJUpTn7GiYcz/gPcA4fqpMGwkAwUk8Q3iLoCBFxFyK402HNoiYJ95SGVU0OVFq3GKo4uAuSQEgNcsUZdYhe6WEOe0BSIXiC2kZbAw7+bDtWRzNwz8iWiOPMNfC/lO62i3gKYZqWxsV2pfQ/0rfC2yK8mfY4nW2ms9DeHVlsqmM2Bio7KpJwafgdETO3gRIbfSsDi0RcA8GyCVUUGXF63mv4xTmmpP+doCXA6TwzTmJo8oTWWCVlTZ1BUjEK21D3E0JuzWJRZ4hO61FR2xY979P+tcpXKUQOKJWA2zoTGE1kctYA3l0Ke8LvEUh95fTeIWzuT0cq3F0TM9RkXRUKtR2RT0trTWjqTiDfZH6pL0sAQvCkGjUZoazUEPpT5Gk15siJBRaVgv2iK3smHXfVRxRdEDZDFQ76tLXGGJaKwPdhpUxdtA+VtwLAbDDyFfOjMKDMMxNgpmImwZxdG38L+YMtkqxsfEcRA7felP1Ghr7ZUUa355NPaAXSm4Zy3RHHkTL+1tYOzPAdRGQP0sG1uB/R3MFhK4V6n//Bih3soZdKSu2wiiMbS/nei0EZVNL4bIf4slrL1k4H6Qf4jdoSEC/QBGKliXWIHG6uEwloE4UH8kFUrKQpJbJ92XLVGaege4W0IcTBMMHzW7DYeDdJN3ku5xfNiJgKSIKE09x4dtWGvUJWhCYzP734WxQxG+jMY+GAvtipc5liiOXocdNFpryynxTWQ6wNogjRKIZ9lfgmG8iNAlaI6UwuQS0FGIJhc718H8R8iXysxBtY6T8mIxezntVOZJvNCzmiOTLdFaOwCX7wSplh2c4RRKlftiDqpXjCDsIFK1qvusBxivw1gSGh/boru7gwI5QDJPxyWnzRRkD1cutaLxsiXSmQ9AyWlXFKkz5FKk+2Ec0t1V429lfy7bPlR77kDVvw44rQ/qZRMxI+yquI4SxiwNu+Nj20GzNEypbsfPSoL/CMZaYd3Ah4+B1oilXcqXbv1+tBbaFca9lkhnbkBzZxhoI4H2D2AFWFcLSQ8y+hr7e1DMTwmJ7s9sT5IMVLB/EJISuRtNBF9TY5PZsjrEAVZxvItD0dhiu3LmL1iitXYlHpaHsPEBft+B8SEedkljKwZz2N+C8ZIwTShPnUZQc7nE9ZzkYTSmqRN/SQE2BVUiNK/h3Ko0RobUHzle8yNnXVFUyjU7HOaWdLMEIXYl836sduKP80kG8shtIUwHDyeU40rHWQJTQ0NvneBH4D6JE1xlVxhLLdEcSQDmRD1DE0hCN7ZUkAOfrvhpEF+Q6tOwlQpbRmkqSdwVpPtqpWsCMHugkUBAraUzSyHeorxW2ZXsfGQJvemttetCINXbuJ0CcPDkykYeXaU7NjoB317ErsRwEdu60ROmqV2UEuVUPRgDURnK/pPZ20GMXuxdSe67U3S36Jp3ZARrClYU/URQJkim/klQfeuLo6vsivVHLaGrXpco0BvTBWQa/9Zi5xRd88lci1l4mQwz5THom4S8NtQcYawi/aDrD5ZxJIYOnQw8CiMIbIVND/d6RxDYhwlsqLLdgUwPISAhHah22YsP/fg7GUGxNAai3gmpd9o8M6tzjCOMqnVesALS+rpu2nuWSGe+A867ykJXgt1AwXUF9Jcac4Svs2aPrsTWkx5bwlmfUs75nA5jEMhHc3Bnq07GIwnidS6CcDnd5o/ENJK7/IpdMfYKkgEC+KQlUpn5ZO5UpaGK4PoT9RxSWqJHYiaMYsKYifUCPb8zUf1YfVDEeuBNZX1HrXMSENUdxoL9BQVxLtI6PnSB+ZTu5nobuOLWahwhSWV+0WgxihBojq/RRlGX8DcqLIqrAfOng+SVBgWeDFzYgPmugB9T760D9KyIOE6Ou5K5X7Wlc7KXX4Ukx1pt5qOxJ45AesJirEv8UXvPZe/DAB4LoBovrGRgDiCmwrzJC7w0NRZXWoeoGShHI9VZZrI3NygXvAT1Np30rAbl15jrGmzCo7H7GhS3VjB7CfCqQhstNuWRnpaHgzbiqEiEifNNJ51ZhhfGGY+wRbI7mEUcFfEQ03FaaFJnlLvNkWvCRwnKVZfhGszn4GsCfxld6Cmg+xv6s4inQYxqkvkqjIfsSqSPWaIusYgAV4ToI0+TpVSIL8HYqg8xwb2A58RwrD+LZNiwusRTWtNk+DEAtKRLUzVyl+aoJwHEMN2M1BrkUHpAvBOMxnLxP1Eve0uI6Rn/LZxWvvqHF40dkzTFjY9d0mjHOUVLaGfhvI2w80lxNGgJvEfw+h3iK4Hzs96nm3GSQ/eZByzeweLoo0Sfzx1Yblei32iJ0tRezoq3tLXW5cNB9uv5Y7ai4FDXsNWVa5fwGBrHmiMduHY/hDh4lyurge1LvDDBlaY2krlAvfe9iRkvGnvMEs2RKuzY0ee3eEhRTVeBeKhOoQLG/VRAEA07R5UdI45mQIS+BysFQBGhzqiLpEcRbJcj8WFqBlC26MlKwNAgVWtX0p22RDS2jgiYVyqbPsFRLlt2gZGJRhORRhyt1osInTTPJStTUTLwKcQmpOtwu0NVlrbq8qIVL3ph9gG8EqNoVBRdzv7N/I2G0ehB98a1s/hLhM0ayp7uAOwW1dFu0tmSTmdSTOo3BOnQ8ynIAuaP+ZTBXI1J87n/byNNkZVWxbGbCu2A0S7E0iFMjgOW0JBgNcbHfgPst1H/DS6xIaI5cg52LmZbJsg5RZCM4T0qY+uw4YTezwKSUa0exMqmNUr1bup2DVclBbJmPYRC1IK/+QAhCSI0O0ijsslVfxfEPOpLEPPUzgVRvwCMxigaQqQtWq0Nj9gJzIvR2KZHXRCb0CoD83qdTj8ka/jgATPVJFJzooYiRjUR3BZ+Q6Fq2whuoqHhaGhrI/hCGqLZbbIEyNciGkvVvA7jlSCn9TQOMmk1S60gv9ASFUV9uDf36oC+oab6sOUd0rFcFb2AYP2gX0BaxoRt/VoEquijhG4AiSkjwl6EfTnZ4gtzRVEljDdJ2yN2hVFniWTgVaKksMHJ3u/xuY5cnKCC2gLmodjYgvXJYTM31zjR2DPAs3OEHr2+9RVFERDdGSSADhjqD96NHl6+hWAsFxs1eBklvGejOkrvyFBc9MHdRcScp5Rfh5vP2aunY432PozGi5z2M3aFkbaEMesBwxxF8WBsL1v2YKeLjH6Dq4F80DrWY+i6SMM+Tqql5sifSMhaDuFpuX0LY88ifcquvACzjxGK25VIBNnQF/4tGHgfA5/qAm7C1y58fcqeb/X27QLiv5Hu4kZSjCKSATW5FhhFKkZltITxZg1b+mgIWonB/jS7ZXYlq49aIhmYByo0KopuRrWEoe5yMDMmVTaNxG03Oqi+JrVX136WU6UVpzPPh1KZYprsfrpeP82vJ6BSyt5LMMqwU5qaRzaCzMDL7ApjrSVKU7tYy2TjZ7YEsOEH5UnSUCsvotLzKfIORxjfgy4HO58pzQcJ+294+ASk74YB9AnGGtXVDLGvBK5mvz8rh4WMq/eRjELwX+QxUpkCktIJRr2K0McTUEZ9t2IsoXuyDld964/UnaniDWuOPEQhcNFE8OOaevqfAfAXtYgVmNd3XP16uFHwNoJmB6fyERpfqwG0EOJPHGYLWu10Ki1A7EJU+mrLManGUpmehFePDQ6BZ4O9/YG6yK4MYNWW0HiuHyAI9VL2atAcBe7uYgxGol+ttOboaj7ALciRMRHdiXc92NmrO9JaG8BYkLVMTWw6kIMwnrQrRfC2JdSv7DHpAHRMqYwDs69stOfD8WRXK0GJUN/TVy59h2GLQyGoZL8Badq7DeSOONIw7bx0A/7XhSyhruN6X0naCPLtJZzVmMf40Ug/tNgNFUWXsOF2TTpjsPUov0iEwbdbvyieieTxBo1O3NYGYjseSc/Gyqb8MAfdiOl7KN8yDbX3c+y9Gltrn+BB+baBk3tB979BhcFvo2KsD/HdnTd+c4h/11N7/YQGCIAjSMwhqoMRggg3KaBVoFmrFv8uzjaBJAWDu5sM6OvDLv6eg7FXhbgYja/RSNqV7PzOEipT/RqIjTNI1SdcwjOwvs5jMJwQ1iiyzPeSdOYKCvkFPtzL3zI1keXsf1Ilt4V9j/AhQ8rnyPphXI3D4GEEfTxGXeIzutk+bMwPEetnqOfQSVchCASx/jyMIfTb++yKxhBLJAPfkcDdQWzMpLDup+eOJJGdw6T2BDz0kvWTUN2H2kjgvifr1+H/cdxpqnxc967OEtHYawS1Woz3Uf0Oxvsg5DUQ4Y0WK2FEdNNexvqVwNVX9ev0MuqprZS7jqjMRXUdFc7XBJ1xcfR5mPeA8K8eI53Zgcu3OOt/ydg3HK2PajsVt/ROGdMYmQwk7cqWlZZQDTOQSeMrTuhf/HnHbb8ttta+xIe0vma8BLIlYcpqviXU+5ojj6hv30pGq1G7lfO/VOPxrQSwWU/KrTi/EKgTsBoJguoqfK0jxWF8j2wgb/3Y+2DD+NiPRFbbQCE9T67fbEgGDgW18sYdovqXp/G7gMNbzgP/HtXbMhy830IsDlY2OVgv0yTZEUQPsV/r9hCXqyNQY14CeTXxfRyqYDamB8TT+B7M33MK4gIQvUIA04G8Qm3uQSJKs8VLgAb9Q0FjLlErep7cXkLmfuQ4f62ZvR8bx5DbMJsr1PCuwtoIWtIEBDwUygT1TQdRrnqV2xzRpzxJa+1XNp06QeKcr+zBfMmuNvPq+rgRpJWoTSca3gOBTmfew+Jg1LlCCkt7FGcygDEFrinNWw/pLRHBV2sRzZFT6XYOvgM6/m/JXBlB6NvqUPXkBYQ3HMahoFZ7FIrbqwr5sdhUDLSGO48RR0UijPlf(/figma)--&gt;&quot;&gt;&lt;/span&gt;&lt;span style=&quot;&quot;&gt;ProvideCode {totp: u32, step: u32}&lt;/span&gt;" style="rounded=1;whiteSpace=wrap;html=1;fillColor=#B5F4D2;strokeColor=#82b366;" vertex="1" parent="1">
          <mxGeometry x="-1510" y="560" width="180" height="50" as="geometry" />
        </mxCell>
        <mxCell id="ajUBVkdMT1qYDPF6oBHR-31" value="Success" style="rounded=1;whiteSpace=wrap;html=1;fillColor=#B5F4D2;strokeColor=#82b366;" vertex="1" parent="1">
          <mxGeometry x="-1390" y="690" width="180" height="50" as="geometry" />
        </mxCell>
        <mxCell id="ajUBVkdMT1qYDPF6oBHR-32" value="The other user didn&#39;t confirm the&amp;nbsp;&lt;br&gt;code we provided was correct" style="rounded=1;whiteSpace=wrap;html=1;fillColor=none;strokeColor=#b85450;" vertex="1" parent="1">
          <mxGeometry x="-1620" y="690" width="180" height="50" as="geometry" />
        </mxCell>
        <mxCell id="ajUBVkdMT1qYDPF6oBHR-33" value="The other user didn&#39;t confirm the&amp;nbsp;&lt;br&gt;code we provided was correct" style="rounded=1;whiteSpace=wrap;html=1;fillColor=none;strokeColor=#b85450;" vertex="1" parent="1">
          <mxGeometry x="-1290" y="500" width="180" height="50" as="geometry" />
        </mxCell>
        <mxCell id="ajUBVkdMT1qYDPF6oBHR-34" style="edgeStyle=orthogonalEdgeStyle;rounded=1;sketch=0;orthogonalLoop=1;jettySize=auto;html=1;entryX=0.5;entryY=0;entryDx=0;entryDy=0;strokeColor=#000000;strokeWidth=3;" edge="1" parent="1" source="ajUBVkdMT1qYDPF6oBHR-35" target="ajUBVkdMT1qYDPF6oBHR-14">
          <mxGeometry relative="1" as="geometry" />
        </mxCell>
        <mxCell id="ajUBVkdMT1qYDPF6oBHR-35" value="WaitForCode" style="rounded=1;whiteSpace=wrap;html=1;fillColor=#B5F4D2;strokeColor=#82b366;" vertex="1" parent="1">
          <mxGeometry x="-1070" y="500" width="180" height="50" as="geometry" />
        </mxCell>
        <mxCell id="ajUBVkdMT1qYDPF6oBHR-36" style="edgeStyle=orthogonalEdgeStyle;rounded=1;sketch=0;orthogonalLoop=1;jettySize=auto;html=1;entryX=0;entryY=0.5;entryDx=0;entryDy=0;strokeColor=#DAE8FC;strokeWidth=3;" edge="1" parent="1" source="ajUBVkdMT1qYDPF6oBHR-37" target="ajUBVkdMT1qYDPF6oBHR-30">
          <mxGeometry relative="1" as="geometry" />
        </mxCell>
        <mxCell id="ajUBVkdMT1qYDPF6oBHR-37" value="DisplayCode" style="ellipse;whiteSpace=wrap;html=1;fillColor=#dae8fc;strokeColor=#6c8ebf;" vertex="1" parent="1">
          <mxGeometry x="-1665" y="560" width="110" height="50" as="geometry" />
        </mxCell>
        <mxCell id="ajUBVkdMT1qYDPF6oBHR-38" value="Success" style="rounded=1;whiteSpace=wrap;html=1;fillColor=#B5F4D2;strokeColor=#82b366;" vertex="1" parent="1">
          <mxGeometry x="-1180" y="690" width="180" height="50" as="geometry" />
        </mxCell>
        <mxCell id="ajUBVkdMT1qYDPF6oBHR-39" value="CodeFailure" style="rounded=1;whiteSpace=wrap;html=1;fillColor=#f8cecc;strokeColor=#b85450;" vertex="1" parent="1">
          <mxGeometry x="-950" y="690" width="180" height="50" as="geometry" />
        </mxCell>
      </root>
    </mxGraphModel>
  </diagram>
</mxfile>
